<svg id="Layer_1" data-name="Layer 1" xmlns="http://www.w3.org/2000/svg" viewBox="0 0 263.22 190.58">
  <defs>
    <style>
      .ID-too-small-1 {
        fill: #f0efef;
      }

      .ID-too-small-2 {
        fill: #bababa;
        opacity: 0.31;
      }

      .ID-too-small-3 {
        fill: #010101;
      }

      .ID-too-small-4 {
        fill: #fff;
      }

      .ID-too-small-5 {
        fill: #e3ddd6;
      }

      .ID-too-small-6 {
        fill: #b0aaa6;
      }

      .ID-too-small-7 {
        fill: #e1dcd4;
      }

      .ID-too-small-8 {
        fill: #333;
      }

      .ID-too-small-9 {
        fill: currentColor;
      }

      .ID-too-small-10 {
        fill: #f2f2f2;
      }

      .ID-too-small-11 {
        fill: #b7b8ba;
      }
    </style>
  </defs>
  <g>
    <rect class="ID-too-small-1" x="57" y="45.35" width="140.95" height="93.27" rx="10.87"/>
    <path class="ID-too-small-2" d="M198,124.78V134c.09,4.32-3,4.61-4.72,4.61H60.83A3.82,3.82,0,0,1,57,134.79v-10Z"/>
    <g>
      <path class="ID-too-small-3" d="M118.42,57.24h.89v4.44h-.89Z"/>
      <path class="ID-too-small-3" d="M124.08,59.47a2.14,2.14,0,0,1-2.34,2.21h-1.56V57.24h1.56A2.15,2.15,0,0,1,124.08,59.47Zm-2.37,1.46a1.33,1.33,0,0,0,1.46-1.46A1.35,1.35,0,0,0,121.71,58h-.63v2.94Z"/>
      <path class="ID-too-small-3" d="M127.32,58h-1.68v1.11h1.49v.71h-1.49V61h1.68v.72h-2.57V57.24h2.57Z"/>
      <path class="ID-too-small-3" d="M131.93,57.24v4.44H131l-2-3v3h-.89V57.24H129l2,3v-3Z"/>
      <path class="ID-too-small-3" d="M132.57,57.24h3.26V58h-1.19v3.72h-.89V58h-1.18Z"/>
      <path class="ID-too-small-3" d="M136.48,57.24h.89v4.44h-.89Z"/>
      <path class="ID-too-small-3" d="M138,57.24h3.26V58h-1.19v3.72h-.89V58H138Z"/>
      <path class="ID-too-small-3" d="M141.55,57.24h1l1,2,.94-2h1l-1.5,2.9v1.54h-.9V60.14Z"/>
      <path class="ID-too-small-3" d="M149.51,57.18a2.1,2.1,0,0,1,2.09,1.44h-1a1.12,1.12,0,0,0-1.06-.63,1.48,1.48,0,0,0,0,2.94,1.1,1.1,0,0,0,1.06-.65h1a2.08,2.08,0,0,1-2.09,1.44,2.27,2.27,0,0,1,0-4.54Z"/>
      <path class="ID-too-small-3" d="M155.08,60.84h-1.76l-.3.84h-.93l1.59-4.44h1l1.6,4.44h-.94Zm-.88-2.57-.64,1.85h1.28Z"/>
      <path class="ID-too-small-3" d="M158.58,57.24c1.07,0,1.61.62,1.61,1.36a1.28,1.28,0,0,1-1,1.28l1.07,1.8h-1l-1-1.73h-.42v1.73h-.89V57.24Zm0,.74h-.74v1.3h.74c.5,0,.72-.26.72-.66S159.05,58,158.55,58Z"/>
      <path class="ID-too-small-3" d="M164.89,59.47a2.14,2.14,0,0,1-2.34,2.21H161V57.24h1.56A2.15,2.15,0,0,1,164.89,59.47Zm-2.38,1.46A1.33,1.33,0,0,0,164,59.47,1.35,1.35,0,0,0,162.51,58h-.63v2.94Z"/>
    </g>
    <g>
      <rect class="ID-too-small-4" x="63.94" y="56.14" width="43.67" height="44.32"/>
      <path class="ID-too-small-5" d="M82,84.28l-.89,5.86a2.28,2.28,0,0,1-1.2,1.7l-7.61,3.8,27.25.22L94,92.69A4,4,0,0,1,92,90l-1-5.48Z"/>
      <path class="ID-too-small-6" d="M81.8,85.82s1,2.54,4.68,2.47,4.8-2.46,4.8-2.46Z"/>
      <path class="ID-too-small-5" d="M94.77,75.17s1.62-.07,1.69,1.25-1.8,2.91-1.8,2.91Z"/>
      <path class="ID-too-small-5" d="M78.38,75.29s-1.6-.22-1.8,1.09,1.77,2.85,1.77,2.85Z"/>
      <path class="ID-too-small-7" d="M78.19,75.93v2.33a13.06,13.06,0,0,0,3.38,7.35c3,2.91,6.92,1.68,8.11,1.1A7.59,7.59,0,0,0,94.09,82c1.39-3.44.47-9.55.47-9.55s-.34-5.34-2.86-6-8-1.35-10.47.59S78.19,75.93,78.19,75.93Z"/>
      <polygon class="ID-too-small-6" points="86.46 76.14 85.59 81.03 86.52 81.56 86.46 76.14"/>
      <path class="ID-too-small-8" d="M83.75,68.69S84.88,72,90,72.2c1.15.09,2,.14,2,.14s2.31.23,2.18,2a19.62,19.62,0,0,0,.32,4.12c1.23-1.92,2.69-3.06,3.5-7.59a10.53,10.53,0,0,0-4.22-10.53c-3-2.2-5.36-2.52-7.35-1.75a13.3,13.3,0,0,0-3.66,1.76,4.94,4.94,0,0,1-2.36.81,6.45,6.45,0,0,0-5.6,4.2c-1.31,3.45,2.65,10,3.32,12.19.67-2.32-.23-3.47,1.92-5.73C81.79,70.16,83.32,69.8,83.75,68.69Z"/>
      <path class="ID-too-small-9" d="M65.31,100.46,67,98.24l12.16-6.46s2.61,2.25,7.63,2.11,7-1.91,7-1.91l10.88,6,2,2.5Z"/>
      <circle class="ID-too-small-8" cx="82.3" cy="76.51" r="0.74"/>
      <circle class="ID-too-small-8" cx="89.86" cy="76.51" r="0.74"/>
      <path class="ID-too-small-10" d="M85.34,83.94a11.2,11.2,0,0,0,3.21-.62,2,2,0,0,1-1.61,1A2.09,2.09,0,0,1,85.34,83.94Z"/>
    </g>
    <g>
      <rect class="ID-too-small-4" x="158.68" y="102.27" width="32.66" height="30.48" rx="11.49"/>
      <g>
        <path class="ID-too-small-9" d="M163.46,107.54h3.46v19.17h-3.46Z"/>
        <path class="ID-too-small-9" d="M171.19,107.54H178c6.33,0,10.8,4,10.8,9.57s-4.47,9.6-10.8,9.6h-6.76Zm7.12,16c4.05,0,6.89-2.68,6.89-6.45s-2.84-6.41-6.89-6.41h-3.63v12.86Z"/>
      </g>
    </g>
    <g>
      <g>
        <path class="ID-too-small-9" d="M75.23,127.94a4.3,4.3,0,0,1-4.12-3.1H63.89v4A2.07,2.07,0,0,0,66,130.92H84.51a2.06,2.06,0,0,0,2.06-2.06v-4H79.36A4.3,4.3,0,0,1,75.23,127.94Z"/>
        <path class="ID-too-small-9" d="M84.51,116.37H66a2.06,2.06,0,0,0-2.06,2.06v4h7.22a4.29,4.29,0,0,1,8.25,0h7.21v-4A2.06,2.06,0,0,0,84.51,116.37Z"/>
      </g>
      <circle class="ID-too-small-9" cx="75.23" cy="123.64" r="2.57"/>
    </g>
    <rect class="ID-too-small-11" x="118.42" y="80.48" width="59.88" height="3.2"/>
    <rect class="ID-too-small-11" x="118.42" y="72.26" width="59.88" height="3.2"/>
    <rect class="ID-too-small-11" x="118.42" y="88.97" width="59.88" height="3.2"/>
    <rect class="ID-too-small-11" x="118.42" y="97.46" width="27.25" height="3.2"/>
  </g>
  <path class="ID-too-small-8" d="M261.71,1.51V189.07H1.51V1.51h260.2M263.22,0H0V190.58H263.22V0Z"/>
</svg>
