<svg id="Layer_1" data-name="Layer 1" xmlns="http://www.w3.org/2000/svg" xmlns:xlink="http://www.w3.org/1999/xlink" viewBox="0 0 263.22 190.58">
  <defs>
    <style>
      .cls-1 {
        filter: url(#AI_GaussianBlur_1);
      }

      .cls-2 {
        fill: #f0efef;
      }

      .cls-3 {
        fill: #231f20;
      }

      .cls-4 {
        fill: #bababa;
        opacity: 0.31;
      }

      .cls-15, .cls-5 {
        fill: #fff;
      }

      .cls-6 {
        fill: #e3ddd6;
      }

      .cls-7 {
        fill: #b0aaa6;
      }

      .cls-8 {
        fill: #e1dcd4;
      }

      .cls-9 {
        fill: #333;
      }

      .cls-10 {
        fill: currentColor;
      }

      .cls-11 {
        fill: #f2f2f2;
      }

      .cls-12 {
        fill: #111;
      }

      .cls-13, .cls-14, .cls-15 {
        opacity: 0.67;
      }

      .cls-13 {
        fill: url(#linear-gradient);
      }

      .cls-14 {
        fill: #dcdbdb;
      }

      .cls-16 {
        fill: #b7b8ba;
      }
    </style>
    <filter id="AI_GaussianBlur_1" name="AI_GaussianBlur_1">
      <feGaussianBlur stdDeviation="1"/>
    </filter>
    <linearGradient id="linear-gradient" x1="236.99" y1="136.98" x2="181" y2="147.95" gradientUnits="userSpaceOnUse">
      <stop offset="0.01" stop-color="#e3ddd6"/>
      <stop offset="0.99" stop-color="#bdb4a9"/>
    </linearGradient>
  </defs>
  <g class="cls-1">
    <rect class="cls-2" x="17.13" y="19.12" width="230.18" height="152.32" rx="6.37"/>
    <g>
      <path class="cls-3" d="M117,42h3c2.83,0,4.84,1.74,4.84,4.2s-2,4.22-4.84,4.22h-3Zm3.24,6.78a2.58,2.58,0,1,0,0-5.14h-1.44v5.14Z"/>
      <path class="cls-3" d="M131.35,50.37l-1.92-2.73h-1.34v2.73h-1.8V42h3.79a2.92,2.92,0,0,1,3.17,2.84,2.75,2.75,0,0,1-1.91,2.64l2.07,2.94ZM128.09,46h1.79c.9,0,1.51-.46,1.51-1.19s-.61-1.19-1.51-1.19h-1.79Z"/>
      <path class="cls-3" d="M134.63,42h1.81v8.42h-1.81Z"/>
      <path class="cls-3" d="M146.33,42l-3.43,8.42h-2L137.45,42h2l2.42,5.93L144.31,42Z"/>
      <path class="cls-3" d="M147.35,42h1.82v8.42h-1.82Z"/>
      <path class="cls-3" d="M150.92,42h1.8l4.06,5.44V42h1.81v8.42h-1.81l-4.06-5.44v5.44h-1.8Z"/>
      <path class="cls-3" d="M164.2,45.64h3.72v3.47a4.83,4.83,0,0,1-3.4,1.4,4.36,4.36,0,1,1,0-8.71,4.84,4.84,0,0,1,3.4,1.41l-1.31,1.18a2.86,2.86,0,0,0-2.09-.94,2.71,2.71,0,0,0,0,5.42,2.82,2.82,0,0,0,1.64-.54V47.05h-2Z"/>
      <path class="cls-3" d="M178.81,48.74v1.63h-6V42h1.82v6.79Z"/>
      <path class="cls-3" d="M180,42h1.81v8.42H180Z"/>
      <path class="cls-3" d="M183.16,46.15a4.49,4.49,0,0,1,7.75-2.94l-1.31,1.18a2.63,2.63,0,0,0-2-.94,2.71,2.71,0,0,0,0,5.42,2.63,2.63,0,0,0,2-.94l1.31,1.18a4.58,4.58,0,0,1-3.27,1.4A4.48,4.48,0,0,1,183.16,46.15Z"/>
      <path class="cls-3" d="M193.84,43.58v1.68h4.23v1.63h-4.23v1.85h4.67v1.63H192V42h6.48v1.63Z"/>
      <path class="cls-3" d="M200,42h1.8l4.06,5.44V42h1.81v8.42h-1.81l-4.06-5.44v5.44H200Z"/>
      <path class="cls-3" d="M208.82,49.12l1-1.24a4.15,4.15,0,0,0,2.77,1.1c.91,0,1.38-.41,1.38-.94s-.49-.78-1.78-1.08c-1.78-.4-3-.9-3-2.53s1.28-2.63,3.11-2.63A4.84,4.84,0,0,1,215.6,43l-.94,1.3a3.93,3.93,0,0,0-2.41-.93c-.77,0-1.23.4-1.23.9s.5.81,1.8,1.1c1.81.41,3,.95,3,2.5s-1.21,2.67-3.27,2.67A5.44,5.44,0,0,1,208.82,49.12Z"/>
      <path class="cls-3" d="M219,43.58v1.68h4.23v1.63H219v1.85h4.67v1.63h-6.49V42h6.49v1.63Z"/>
    </g>
    <path class="cls-4" d="M247.3,148.85v15.07c.16,7.05-4.82,7.53-7.7,7.53H23.38a6.23,6.23,0,0,1-6.25-6.24V148.85Z"/>
    <rect class="cls-5" x="28.47" y="36.74" width="71.32" height="72.38"/>
    <path class="cls-6" d="M58,82.71l-1.45,9.56a3.7,3.7,0,0,1-2,2.77l-12.43,6.22,44.51.35-9.16-5.17A6.48,6.48,0,0,1,74.36,92L72.66,83Z"/>
    <path class="cls-7" d="M57.63,85.22s1.66,4.14,7.65,4,7.83-4,7.83-4Z"/>
    <path class="cls-6" d="M78.81,67.83s2.65-.12,2.77,2-3,4.76-3,4.76Z"/>
    <path class="cls-6" d="M52.05,68s-2.62-.36-2.94,1.78S52,74.45,52,74.45Z"/>
    <path class="cls-8" d="M51.73,69.06v3.81s.65,7.27,5.53,12,11.3,2.73,13.23,1.78,4.92-2,7.2-7.67.78-15.61.78-15.61-.55-8.71-4.67-9.82-13.15-2.22-17.11.95S51.73,69.06,51.73,69.06Z"/>
    <polygon class="cls-7" points="65.24 69.41 63.83 77.4 65.34 78.26 65.24 69.41"/>
    <path class="cls-9" d="M60.81,57.25s1.85,5.4,10.25,5.72c1.87.15,3.32.23,3.32.23s3.78.38,3.57,3.25.26,4.25.52,6.72c2-3.13,4.4-5,5.72-12.39A17.23,17.23,0,0,0,77.3,43.59c-4.91-3.59-8.76-4.11-12-2.86a21.33,21.33,0,0,0-6,2.88,8.1,8.1,0,0,1-3.87,1.32,10.51,10.51,0,0,0-9.14,6.85c-2.14,5.65,4.33,16.28,5.42,19.91,1.1-3.79-.37-5.66,3.14-9.36C57.62,59.64,60.11,59.05,60.81,57.25Z"/>
    <path class="cls-10" d="M30.69,109.12l2.74-3.62L53.29,95s4.26,3.68,12.46,3.45,11.41-3.12,11.41-3.12L94.94,105l3.2,4.08Z"/>
    <circle class="cls-9" cx="58.46" cy="70.02" r="1.21"/>
    <circle class="cls-9" cx="70.79" cy="70.02" r="1.21"/>
    <path class="cls-11" d="M63.41,82.14a18.54,18.54,0,0,0,5.24-1A3.18,3.18,0,0,1,66,82.69,3.43,3.43,0,0,1,63.41,82.14Z"/>
    <g>
      <rect class="cls-5" x="183.19" y="112.08" width="53.33" height="49.77" rx="11.49"/>
      <g>
        <path class="cls-12" d="M229.46,132c-.21-.43-.58-1.27-.79-1.7a1.23,1.23,0,0,0,1-1.16.64.64,0,0,1,.52-.59,5.84,5.84,0,0,1,2.72.18,1.52,1.52,0,0,1,1,1.44,1.24,1.24,0,0,1-.77,1C232,131.51,230.7,131.7,229.46,132Z"/>
        <path class="cls-12" d="M190.25,132c.2-.43.58-1.27.79-1.7a1.23,1.23,0,0,1-1-1.16.65.65,0,0,0-.52-.59,5.84,5.84,0,0,0-2.72.18,1.52,1.52,0,0,0-1,1.44,1.24,1.24,0,0,0,.77,1C187.76,131.51,189,131.7,190.25,132Z"/>
        <path class="cls-10" d="M229.29,131.55a26.74,26.74,0,0,0,1.43,2.7,13.14,13.14,0,0,1,1.84,8.75,39.85,39.85,0,0,1-.72,4.72,13.1,13.1,0,0,1-1,2.23,4.14,4.14,0,0,1-3,.91c-1,0-2,0-3,0l-12,.07-16.75.07-1.12,0c-1.06,0-2.12-.05-3.19,0a4.43,4.43,0,0,1-2.75-.67c-1-1-1.21-2.37-1.47-3.68a22.7,22.7,0,0,1-.38-7.79,12.28,12.28,0,0,1,1-3.11c.65-1.45,1.44-2.84,2.16-4.25.2-.44.4-.87.59-1.3,1-2,1.91-4,3-5.93,2.23-3.89,1.84-3.52,6.09-3.84s8.47-.43,12.7-.43c3,0,6,.36,8.95.53a2.85,2.85,0,0,1,2.48,1.54c1.31,2.35,2.58,4.72,3.87,7.08l.56,1.06Zm-2.38-1.18a1.48,1.48,0,0,0,0-.33l-3.52-7.68a1.21,1.21,0,0,0-1.19-.75c-6.36,0-12.72-.06-19.08-.06-1.84,0-3.69.16-5.53.2a1.41,1.41,0,0,0-1.41,1c-.31.77-.67,1.51-1,2.26l-2.38,5.37Zm-9.56,19.17c.57,0,.81-.18.79-.7s0-1.25,0-1.88c0-.45-.18-.67-.71-.67l-15.09.06c-.54,0-.77.22-.76.7s0,1.21,0,1.82.14.76.87.76C204.91,149.63,214.84,149.53,217.35,149.54Zm7.07-8c1.05,0,2.1.06,3.14,0A2.75,2.75,0,0,0,229,141a4.68,4.68,0,0,0,1.48-4.13c0-.94-.45-1.25-1.37-1L224.35,137c-2.65.66-2.65.66-4,3.06a.21.21,0,0,0,0,.06c-.47.87-.12,1.46.87,1.47Zm-29.18,0c1.1,0,2.19,0,3.29,0s1.32-.6.87-1.42A10.8,10.8,0,0,0,198,138a1.53,1.53,0,0,0-.61-.41c-1.71-.58-4.71-1.25-7.08-1.81a.81.81,0,0,0-1.08.74,5.16,5.16,0,0,0,1,4,2.93,2.93,0,0,0,2.48,1C193.63,141.48,194.29,141.55,195.24,141.55Z"/>
        <path class="cls-12" d="M225,150.89c1,0,2-.07,3,0a4.14,4.14,0,0,0,3-.91c0,1.19.05,2.38,0,3.58a1.22,1.22,0,0,1-1.36,1.33c-1.09,0-2.19,0-3.28,0a1.2,1.2,0,0,1-1.3-1.3C225,152.68,225,151.79,225,150.89Z"/>
        <path class="cls-12" d="M189.11,150.38a4.43,4.43,0,0,0,2.75.67c1.07,0,2.13,0,3.19,0,0,.9,0,1.8,0,2.69a1.18,1.18,0,0,1-1.29,1.31c-1.1,0-2.2,0-3.29,0a1.21,1.21,0,0,1-1.35-1.34C189.1,152.62,189.12,151.5,189.11,150.38Z"/>
        <path class="cls-12" d="M216.42,142.58a57.74,57.74,0,0,1-13.14,0,2.26,2.26,0,0,1-2.06-2.54h0a2.33,2.33,0,0,1,2.58-1.9,53.31,53.31,0,0,0,12.11,0,2.33,2.33,0,0,1,2.58,1.9h0A2.26,2.26,0,0,1,216.42,142.58Z"/>
        <path class="cls-13" d="M224.42,141.55H221.2c-1,0-1.34-.6-.87-1.47a.21.21,0,0,1,0-.06c1.33-2.4,1.33-2.4,4-3.06l4.79-1.16c.92-.22,1.32.09,1.37,1A4.68,4.68,0,0,1,229,141a2.75,2.75,0,0,1-1.47.57C226.52,141.61,225.47,141.55,224.42,141.55Z"/>
        <path class="cls-14" d="M192.15,141.52a2.75,2.75,0,0,1-1.47-.57,4.71,4.71,0,0,1-1.48-4.13c.06-.94.45-1.24,1.37-1,1.6.39,3.2.77,4.79,1.17,2.65.65,2.65.65,4,3l0,.06c.47.87.12,1.46-.87,1.47s-2.15,0-3.22,0S193.19,141.6,192.15,141.52Z"/>
        <circle class="cls-15" cx="227.57" cy="138.91" r="1.31"/>
        <circle class="cls-15" cx="223.26" cy="139.61" r="0.93"/>
        <circle class="cls-15" cx="192.33" cy="138.89" r="1.31"/>
        <circle class="cls-15" cx="196.64" cy="139.59" r="0.93"/>
      </g>
    </g>
    <rect class="cls-16" x="117.43" y="76.5" width="97.79" height="5.23"/>
    <rect class="cls-16" x="117.43" y="63.07" width="97.79" height="5.23"/>
    <rect class="cls-16" x="117.43" y="90.36" width="97.79" height="5.23"/>
    <rect class="cls-16" x="117.43" y="104.23" width="44.5" height="5.23"/>
  </g>
  <path class="cls-9" d="M261.71,1.51V189.07H1.51V1.51h260.2M263.22,0H0V190.58H263.22V0Z"/>
</svg>
