<svg id="Layer_1" data-name="Layer 1" xmlns="http://www.w3.org/2000/svg" xmlns:xlink="http://www.w3.org/1999/xlink" viewBox="0 0 263.22 189.81">
  <defs>
    <style>
      .cls-1 {
        fill: #f0efef;
      }

      .cls-2 {
        fill: #bababa;
        opacity: 0.31;
      }

      .cls-13, .cls-3 {
        fill: #fff;
      }

      .cls-4 {
        fill: #e3ddd6;
      }

      .cls-5 {
        fill: #b0aaa6;
      }

      .cls-6 {
        fill: #e1dcd4;
      }

      .cls-7 {
        fill: #333;
      }

      .cls-8 {
        fill: currentColor;
      }

      .cls-9 {
        fill: #f2f2f2;
      }

      .cls-10 {
        fill: #111;
      }

      .cls-11, .cls-12, .cls-13, .cls-16 {
        opacity: 0.67;
      }

      .cls-11 {
        fill: url(#linear-gradient);
      }

      .cls-12 {
        fill: #dcdbdb;
      }

      .cls-14 {
        fill: #b7b8ba;
      }

      .cls-15 {
        fill: #231f20;
      }
    </style>
    <linearGradient id="linear-gradient" x1="228.73" y1="135.97" x2="179.72" y2="145.57" gradientUnits="userSpaceOnUse">
      <stop offset="0.01" stop-color="#e3ddd6"/>
      <stop offset="0.99" stop-color="#bdb4a9"/>
    </linearGradient>
  </defs>
  <g>
    <rect class="cls-1" x="22.82" y="25.09" width="217.57" height="143.97" rx="10.87"/>
    <path class="cls-2" d="M240.39,147.7v10.49c.15,6.67-6.19,10.87-9.48,10.88H31.55c-2.79,0-8.73-5.2-8.73-8.93V147.7Z"/>
    <g>
      <rect class="cls-3" x="33.54" y="41.74" width="67.41" height="68.41"/>
      <path class="cls-4" d="M61.46,85.19l-1.38,9a3.45,3.45,0,0,1-1.86,2.61l-11.74,5.88,42.07.34-8.67-4.89a6.12,6.12,0,0,1-3-4.21l-1.6-8.46Z"/>
      <path class="cls-5" d="M61.1,87.57s1.56,3.9,7.22,3.8,7.41-3.79,7.41-3.79Z"/>
      <path class="cls-4" d="M81.12,71.12s2.5-.11,2.61,1.93-2.79,4.5-2.79,4.5Z"/>
      <path class="cls-4" d="M55.82,71.3S53.34,71,53.05,73s2.73,4.4,2.73,4.4Z"/>
      <path class="cls-6" d="M55.52,72.29v3.6s.62,6.87,5.23,11.35,10.68,2.58,12.51,1.69,4.64-1.94,6.8-7.26.73-14.75.73-14.75-.51-8.24-4.41-9.28-12.42-2.1-16.17.89S55.52,72.29,55.52,72.29Z"/>
      <polygon class="cls-5" points="68.29 72.62 66.95 80.17 68.39 80.98 68.29 72.62"/>
      <path class="cls-7" d="M64.1,61.12s1.75,5.11,9.69,5.41c1.77.15,3.14.22,3.14.22s3.57.36,3.37,3.07a30.25,30.25,0,0,0,.49,6.35c1.91-3,4.16-4.72,5.41-11.71a16.27,16.27,0,0,0-6.51-16.24c-4.64-3.4-8.28-3.89-11.36-2.71a20.41,20.41,0,0,0-5.64,2.72A7.66,7.66,0,0,1,59,49.48,9.94,9.94,0,0,0,50.4,56c-2,5.34,4.09,15.39,5.12,18.82,1-3.58-.35-5.35,3-8.84C61.09,63.38,63.44,62.83,64.1,61.12Z"/>
      <path class="cls-8" d="M35.64,110.15l2.59-3.42L57,96.76s4,3.47,11.78,3.26,10.77-3,10.77-3l16.81,9.23,3,3.86Z"/>
      <circle class="cls-7" cx="61.88" cy="73.19" r="1.14"/>
      <circle class="cls-7" cx="73.53" cy="73.19" r="1.14"/>
      <path class="cls-9" d="M66.56,84.65a17.47,17.47,0,0,0,5-1A3,3,0,0,1,69,85.17,3.28,3.28,0,0,1,66.56,84.65Z"/>
    </g>
    <g>
      <rect class="cls-3" x="179.77" y="112.95" width="50.41" height="47.05" rx="11.49"/>
      <g>
        <path class="cls-10" d="M222.14,131.57c-.18-.37-.51-1.11-.69-1.49a1.05,1.05,0,0,0,.85-1,.59.59,0,0,1,.46-.52,5.19,5.19,0,0,1,2.38.16A1.33,1.33,0,0,1,226,130a1.07,1.07,0,0,1-.67.89C224.32,131.17,223.22,131.35,222.14,131.57Z"/>
        <path class="cls-10" d="M187.81,131.57c.19-.37.52-1.11.7-1.49a1.05,1.05,0,0,1-.86-1,.58.58,0,0,0-.45-.52,5.23,5.23,0,0,0-2.39.16,1.34,1.34,0,0,0-.9,1.26,1.09,1.09,0,0,0,.67.89C185.64,131.17,186.73,131.35,187.81,131.57Z"/>
        <path class="cls-8" d="M222,131.21a25.45,25.45,0,0,0,1.25,2.37,11.45,11.45,0,0,1,1.61,7.65,34.2,34.2,0,0,1-.63,4.14,10.68,10.68,0,0,1-.83,1.95,3.64,3.64,0,0,1-2.6.8c-.86,0-1.73,0-2.59,0l-10.54,0-14.66.06c-.33,0-.65,0-1,0-.93,0-1.86,0-2.79,0a3.85,3.85,0,0,1-2.41-.6,5.62,5.62,0,0,1-1.29-3.22,19.79,19.79,0,0,1-.33-6.82,10.48,10.48,0,0,1,.88-2.71c.57-1.27,1.25-2.49,1.89-3.73.17-.38.34-.76.52-1.14.87-1.73,1.66-3.51,2.63-5.19,1.95-3.4,1.61-3.07,5.33-3.35s7.41-.38,11.11-.38c2.62,0,5.23.31,7.84.46a2.52,2.52,0,0,1,2.17,1.35c1.14,2.06,2.26,4.13,3.39,6.2.17.3.32.61.49.92Zm-2.08-1a2.07,2.07,0,0,0,0-.28q-1.54-3.37-3.08-6.73a1,1,0,0,0-1-.65c-5.57,0-11.14-.06-16.71-.06-1.61,0-3.22.14-4.84.18a1.22,1.22,0,0,0-1.24.87c-.26.66-.58,1.31-.87,2l-2.09,4.7ZM211.54,147c.5,0,.71-.16.69-.61s0-1.1,0-1.65c0-.39-.15-.58-.62-.58l-13.21,0c-.47,0-.67.2-.66.62s0,1.06,0,1.59.12.67.76.67C200.65,147,209.35,147,211.54,147Zm6.19-7c.92,0,1.84.05,2.75,0a2.44,2.44,0,0,0,1.28-.5,4.1,4.1,0,0,0,1.3-3.61c-.05-.83-.39-1.09-1.2-.9l-4.19,1c-2.32.58-2.32.58-3.49,2.67l0,.06c-.41.76-.11,1.28.76,1.29Zm-25.55,0h2.89c.84,0,1.15-.53.75-1.25a9.11,9.11,0,0,0-1.21-1.89,1.46,1.46,0,0,0-.54-.36c-1.49-.5-4.11-1.09-6.19-1.58a.7.7,0,0,0-.95.65,4.45,4.45,0,0,0,.86,3.52A2.56,2.56,0,0,0,190,140C190.78,139.9,191.35,140,192.18,140Z"/>
        <path class="cls-10" d="M218.2,148.15c.86,0,1.73-.07,2.59,0a3.64,3.64,0,0,0,2.6-.8c0,1,0,2.09,0,3.13a1.08,1.08,0,0,1-1.19,1.17c-1,0-1.92,0-2.87,0a1.05,1.05,0,0,1-1.15-1.14C218.19,149.71,218.2,148.93,218.2,148.15Z"/>
        <path class="cls-10" d="M186.82,147.69a3.85,3.85,0,0,0,2.41.6c.93,0,1.86,0,2.79,0,0,.79,0,1.58,0,2.36a1,1,0,0,1-1.13,1.14c-1,0-1.92,0-2.88,0a1,1,0,0,1-1.18-1.17C186.81,149.66,186.82,148.67,186.82,147.69Z"/>
        <path class="cls-10" d="M210.73,140.87a50.26,50.26,0,0,1-11.5,0,2,2,0,0,1-1.81-2.22h0a2,2,0,0,1,2.25-1.67,45.91,45.91,0,0,0,10.61,0,2,2,0,0,1,2.26,1.67h0A2,2,0,0,1,210.73,140.87Z"/>
        <path class="cls-11" d="M217.73,140h-2.82c-.87,0-1.17-.53-.76-1.29l0-.06c1.17-2.09,1.17-2.09,3.49-2.67l4.19-1c.81-.19,1.15.07,1.2.9a4.1,4.1,0,0,1-1.3,3.61,2.44,2.44,0,0,1-1.28.5C219.57,140,218.65,140,217.73,140Z"/>
        <path class="cls-12" d="M189.48,139.94a2.46,2.46,0,0,1-1.29-.49,4.11,4.11,0,0,1-1.29-3.62c0-.83.39-1.09,1.2-.9,1.4.33,2.79.67,4.19,1,2.32.57,2.32.57,3.49,2.67l0,0c.41.76.11,1.28-.77,1.29h-2.81C191.31,140,190.39,140,189.48,139.94Z"/>
        <circle class="cls-13" cx="220.49" cy="137.65" r="1.15"/>
        <circle class="cls-13" cx="216.72" cy="138.27" r="0.81"/>
        <circle class="cls-13" cx="189.64" cy="137.64" r="1.15"/>
        <circle class="cls-13" cx="193.41" cy="138.25" r="0.81"/>
      </g>
    </g>
    <rect class="cls-14" x="117.62" y="79.32" width="92.43" height="4.94"/>
    <rect class="cls-14" x="117.62" y="66.63" width="92.43" height="4.94"/>
    <rect class="cls-14" x="117.62" y="92.42" width="92.43" height="4.94"/>
    <rect class="cls-14" x="117.62" y="105.53" width="42.06" height="4.94"/>
    <g>
      <path class="cls-15" d="M117.62,48.2h2.85c2.67,0,4.57,1.64,4.57,4s-1.9,4-4.57,4h-2.85Zm3.07,6.4a2.43,2.43,0,1,0,0-4.85h-1.37V54.6Z"/>
      <path class="cls-15" d="M131.15,56.15l-1.82-2.58h-1.26v2.58h-1.71V48.2h3.58a2.76,2.76,0,0,1,3,2.69,2.58,2.58,0,0,1-1.81,2.48l2,2.78ZM128.07,52h1.69c.84,0,1.42-.44,1.42-1.12s-.58-1.13-1.42-1.13h-1.69Z"/>
      <path class="cls-15" d="M134.24,48.2H136v7.95h-1.71Z"/>
      <path class="cls-15" d="M145.3,48.2l-3.24,7.95h-1.91L136.9,48.2h1.93l2.28,5.6,2.28-5.6Z"/>
      <path class="cls-15" d="M146.26,48.2H148v7.95h-1.72Z"/>
      <path class="cls-15" d="M149.64,48.2h1.7l3.83,5.14V48.2h1.71v7.95h-1.71L151.34,51v5.14h-1.7Z"/>
      <path class="cls-15" d="M162.18,51.68h3.52V55a4.59,4.59,0,0,1-3.22,1.33,4.12,4.12,0,1,1,0-8.23,4.59,4.59,0,0,1,3.22,1.33l-1.24,1.11a2.75,2.75,0,0,0-2-.89,2.57,2.57,0,0,0,0,5.13,2.66,2.66,0,0,0,1.55-.51V53h-1.85Z"/>
      <path class="cls-15" d="M176,54.61v1.54h-5.68V48.2H172v6.41Z"/>
      <path class="cls-15" d="M177.11,48.2h1.72v7.95h-1.72Z"/>
      <path class="cls-15" d="M180.1,52.17a4.24,4.24,0,0,1,7.32-2.78l-1.24,1.11a2.47,2.47,0,0,0-1.85-.89,2.57,2.57,0,0,0,0,5.13,2.47,2.47,0,0,0,1.85-.89L187.42,55a4.31,4.31,0,0,1-3.09,1.33A4.24,4.24,0,0,1,180.1,52.17Z"/>
      <path class="cls-15" d="M190.19,49.74v1.59h4v1.53h-4v1.75h4.41v1.54h-6.12V48.2h6.12v1.54Z"/>
      <path class="cls-15" d="M196,48.2h1.7l3.83,5.14V48.2h1.72v7.95H201.5L197.67,51v5.14H196Z"/>
      <path class="cls-15" d="M204.34,55l1-1.17a3.91,3.91,0,0,0,2.62,1c.85,0,1.29-.39,1.29-.89s-.46-.74-1.68-1c-1.67-.38-2.87-.85-2.87-2.39s1.21-2.48,2.94-2.48a4.62,4.62,0,0,1,3.12,1.1l-.89,1.23a3.69,3.69,0,0,0-2.27-.88c-.73,0-1.17.38-1.17.85s.47.77,1.7,1c1.71.38,2.85.89,2.85,2.36s-1.15,2.52-3.09,2.52A5.12,5.12,0,0,1,204.34,55Z"/>
      <path class="cls-15" d="M213.91,49.74v1.59h4v1.53h-4v1.75h4.41v1.54H212.2V48.2h6.12v1.54Z"/>
    </g>
  </g>
  <path class="cls-7" d="M261.71,1.51V188.3H1.51V1.51h260.2M263.22,0H0V189.81H263.22V0Z"/>
  <g class="cls-16">
    <rect class="cls-7" width="263.22" height="189.81"/>
  </g>
</svg>
