<svg id="Layer_1" data-name="Layer 1" xmlns="http://www.w3.org/2000/svg" xmlns:xlink="http://www.w3.org/1999/xlink" viewBox="0 0 495.04 382.21">
  <defs>
    <style>
      .cls-1 {
        fill: #010101;
      }

      .cls-2 {
        fill: #f0efef;
      }

      .cls-3 {
        fill: #231f20;
      }

      .cls-4 {
        fill: #bababa;
        opacity: 0.31;
      }

      .cls-10, .cls-5 {
        fill: #fff;
      }

      .cls-6 {
        fill: #111;
      }

      .cls-7 {
        fill: currentColor;
      }

      .cls-10, .cls-8, .cls-9 {
        opacity: 0.67;
      }

      .cls-8 {
        fill: url(#linear-gradient);
      }

      .cls-9 {
        fill: #dcdbdb;
      }

      .cls-11 {
        fill: #b7b8ba;
      }

      .cls-12 {
        fill: #2b2829;
      }

      .cls-13 {
        fill: #ececec;
      }
    </style>
    <linearGradient id="linear-gradient" x1="423.6" y1="253.87" x2="338.96" y2="270.45" gradientUnits="userSpaceOnUse">
      <stop offset="0.01" stop-color="#e3ddd6"/>
      <stop offset="0.99" stop-color="#bdb4a9"/>
    </linearGradient>
  </defs>
  <g>
    <path class="cls-1" d="M216.22,25.54c-2.52-2.43-3.92-6.39-3.92-10.64S213.7,6.5,216.51,4h2.71v.25a14.8,14.8,0,0,0-4.33,10.67,15,15,0,0,0,4,10.37v.27Z"/>
    <path class="cls-1" d="M226.68,21.75h-5.79V8.33h5.54c2.8,0,4.36,1.46,4.36,3.46a3.11,3.11,0,0,1-2.29,3.08,3.26,3.26,0,0,1,2.6,3.25C231.1,20.25,229.46,21.75,226.68,21.75ZM226,10.5h-2.46v3.37H226c1.27,0,2-.58,2-1.68S227.31,10.5,226,10.5Zm.19,5.44h-2.65v3.62h2.71c1.31,0,2.08-.64,2.08-1.77S227.54,15.94,226.23,15.94Z"/>
    <path class="cls-1" d="M241.48,19.19h-5.35l-.88,2.56h-2.83l4.83-13.44h3.13l4.83,13.44h-2.85Zm-2.68-7.77L236.86,17h3.89Z"/>
    <path class="cls-1" d="M253.16,8.16a6.33,6.33,0,0,1,6.31,4.34h-3.1a3.38,3.38,0,0,0-3.23-1.92c-2.34,0-4,1.71-4,4.44s1.68,4.44,4,4.44a3.36,3.36,0,0,0,3.23-1.94h3.1a6.31,6.31,0,0,1-6.31,4.34,6.61,6.61,0,0,1-6.8-6.84A6.63,6.63,0,0,1,253.16,8.16Z"/>
    <path class="cls-1" d="M264.46,15.77v6h-2.69V8.33h2.69v6l4.89-6h3.25L267.06,15l5.69,6.77h-3.4Z"/>
    <path class="cls-1" d="M273.82,25.54v-.27a14.9,14.9,0,0,0,4-10.37,14.76,14.76,0,0,0-4.33-10.67V4h2.71c2.81,2.52,4.21,6.66,4.21,10.92s-1.4,8.21-3.92,10.64Z"/>
  </g>
  <g>
    <rect class="cls-2" x="47.25" y="48.63" width="400.53" height="265.04" rx="10.87"/>
    <g>
      <path class="cls-3" d="M83.39,89.61H87.9c4.24,0,7.24,2.6,7.24,6.29s-3,6.3-7.24,6.3H83.39Zm4.86,10.14a3.85,3.85,0,1,0,0-7.68H86.09v7.68Z"/>
      <path class="cls-3" d="M104.81,102.2l-2.88-4.08h-2v4.08H97.24V89.61h5.66c2.73,0,4.75,1.76,4.75,4.25a4.12,4.12,0,0,1-2.86,4l3.1,4.39Zm-4.88-6.56h2.68c1.34,0,2.25-.69,2.25-1.78s-.91-1.77-2.25-1.77H99.93Z"/>
      <path class="cls-3" d="M109.71,89.61h2.71V102.2h-2.71Z"/>
      <path class="cls-3" d="M127.22,89.61l-5.14,12.59h-3l-5.13-12.59h3l3.61,8.87,3.61-8.87Z"/>
      <path class="cls-3" d="M128.75,89.61h2.71V102.2h-2.71Z"/>
      <path class="cls-3" d="M134.08,89.61h2.7l6.06,8.14V89.61h2.72V102.2h-2.72l-6.06-8.13v8.13h-2.7Z"/>
      <path class="cls-3" d="M153.94,95.13h5.57v5.19a7.25,7.25,0,0,1-5.09,2.1,6.52,6.52,0,1,1,0-13,7.22,7.22,0,0,1,5.09,2.11l-2,1.76a4.32,4.32,0,0,0-3.13-1.41,4.06,4.06,0,0,0,0,8.12,4.28,4.28,0,0,0,2.45-.81V97.24h-2.93Z"/>
      <path class="cls-3" d="M175.8,99.77v2.43h-9V89.61h2.71V99.77Z"/>
      <path class="cls-3" d="M177.58,89.61h2.71V102.2h-2.71Z"/>
      <path class="cls-3" d="M182.31,95.9a6.71,6.71,0,0,1,11.59-4.4l-2,1.76A3.91,3.91,0,0,0,189,91.85a4.06,4.06,0,0,0,0,8.12,3.91,3.91,0,0,0,2.93-1.41l2,1.76a6.83,6.83,0,0,1-4.9,2.1A6.7,6.7,0,0,1,182.31,95.9Z"/>
      <path class="cls-3" d="M199.39,92.05v2.51h5.32V97h-5.32v2.77h5.88v2.43h-8.16V89.61h8.16v2.44Z"/>
      <path class="cls-3" d="M207.44,89.61h2.69l6.07,8.14V89.61h2.71V102.2H216.2l-6.07-8.13v8.13h-2.69Z"/>
      <path class="cls-3" d="M220.7,100.33l1.55-1.85a6.22,6.22,0,0,0,4.15,1.65c1.35,0,2-.62,2-1.41s-.73-1.17-2.66-1.61c-2.66-.61-4.54-1.36-4.54-3.8s1.9-3.92,4.65-3.92a7.27,7.27,0,0,1,4.93,1.74l-1.41,2a5.83,5.83,0,0,0-3.59-1.4c-1.16,0-1.85.61-1.85,1.36,0,.91.75,1.21,2.69,1.65,2.71.6,4.51,1.41,4.51,3.74s-1.81,4-4.89,4A8.06,8.06,0,0,1,220.7,100.33Z"/>
      <path class="cls-3" d="M235.84,92.05v2.51h6.33V97h-6.33v2.77h7v2.43h-9.7V89.61h9.7v2.44Z"/>
    </g>
    <path class="cls-4" d="M447.77,238l0,62.59c.28,12.29-8.39,13.12-13.4,13.12l-376.28,0A10.84,10.84,0,0,1,47.25,302.8V238Z"/>
    <g>
      <rect class="cls-5" x="336.19" y="210.38" width="92.8" height="86.61" rx="11.49"/>
      <g>
        <path class="cls-6" d="M412.23,246.28c-.32-.65-.89-1.93-1.2-2.58a1.84,1.84,0,0,0,1.48-1.75,1,1,0,0,1,.78-.89,9.12,9.12,0,0,1,4.12.27,2.31,2.31,0,0,1,1.55,2.18,1.88,1.88,0,0,1-1.15,1.54C416,245.59,414.09,245.89,412.23,246.28Z"/>
        <path class="cls-6" d="M353,246.28c.31-.65.89-1.93,1.2-2.58a1.83,1.83,0,0,1-1.48-1.75,1,1,0,0,0-.79-.89,9.09,9.09,0,0,0-4.11.27,2.31,2.31,0,0,0-1.56,2.18,1.89,1.89,0,0,0,1.16,1.54C349.19,245.59,351.08,245.89,353,246.28Z"/>
        <path class="cls-7" d="M412,245.65a45.46,45.46,0,0,0,2.16,4.09c2.69,4,3.2,8.55,2.79,13.22a59.3,59.3,0,0,1-1.09,7.13,18.46,18.46,0,0,1-1.44,3.38,6.24,6.24,0,0,1-4.49,1.38c-1.49-.07-3,0-4.48,0q-9.09,0-18.19.09l-25.31.11c-.57,0-1.13,0-1.7,0-1.6,0-3.21-.07-4.82,0a6.68,6.68,0,0,1-4.16-1c-1.58-1.51-1.83-3.57-2.22-5.56a34.32,34.32,0,0,1-.58-11.78,18.7,18.7,0,0,1,1.52-4.68c1-2.2,2.17-4.3,3.27-6.44.29-.65.59-1.31.89-2,1.5-3,2.87-6.07,4.54-9,3.37-5.87,2.78-5.31,9.21-5.79s12.79-.66,19.19-.66c4.51,0,9,.55,13.53.8a4.31,4.31,0,0,1,3.75,2.34c2,3.55,3.91,7.13,5.86,10.7.28.52.56,1.06.84,1.59Zm-3.59-1.77a3.33,3.33,0,0,0,0-.5q-2.65-5.82-5.32-11.62a1.82,1.82,0,0,0-1.8-1.12c-9.61,0-19.23-.1-28.84-.09-2.79,0-5.58.23-8.36.29a2.14,2.14,0,0,0-2.14,1.51c-.46,1.15-1,2.27-1.52,3.4l-3.59,8.13Zm-14.45,29c.87,0,1.22-.28,1.19-1.06-.05-1,0-1.89,0-2.84,0-.67-.26-1-1.06-1l-22.82.08c-.81,0-1.16.34-1.14,1.06,0,.92,0,1.84,0,2.76s.21,1.14,1.3,1.14C375.12,273,390.13,272.83,393.92,272.85Zm10.69-12.07c1.58,0,3.17.09,4.75,0a4.11,4.11,0,0,0,2.21-.86c1.93-1.61,2.37-3.84,2.24-6.24-.08-1.43-.68-1.89-2.07-1.55-2.41.57-4.83,1.16-7.24,1.75-4,1-4,1-6,4.61l-.06.1c-.71,1.31-.19,2.2,1.32,2.22S403,260.78,404.61,260.78Zm-44.12,0c1.66,0,3.32,0,5,0,1.45,0,2-.91,1.31-2.15a16,16,0,0,0-2.1-3.26,2.41,2.41,0,0,0-.92-.62c-2.58-.88-7.11-1.89-10.7-2.74a1.21,1.21,0,0,0-1.63,1.12,7.77,7.77,0,0,0,1.47,6.09,4.4,4.4,0,0,0,3.74,1.56C358.07,260.66,359.06,260.78,360.49,260.78Z"/>
        <path class="cls-6" d="M405.41,274.9c1.5,0,3-.12,4.48,0a6.24,6.24,0,0,0,4.49-1.38c0,1.8.08,3.6.06,5.41a1.87,1.87,0,0,1-2.06,2c-1.66,0-3.31,0-5,0a1.82,1.82,0,0,1-2-2C405.41,277.6,405.42,276.25,405.41,274.9Z"/>
        <path class="cls-6" d="M351.23,274.11a6.68,6.68,0,0,0,4.16,1c1.61-.06,3.22,0,4.82,0,0,1.36,0,2.71,0,4.07a1.78,1.78,0,0,1-2,2c-1.66,0-3.32.05-5,0a1.82,1.82,0,0,1-2-2C351.22,277.5,351.24,275.81,351.23,274.11Z"/>
        <path class="cls-6" d="M393.75,262.18a86.93,86.93,0,0,1-22.33,0,2.28,2.28,0,0,1-2.06-2.55c.12-.76.24-1.51.35-2.26a2.3,2.3,0,0,1,2.58-1.89,79.8,79.8,0,0,0,20.6,0,2.3,2.3,0,0,1,2.57,1.89l.36,2.26A2.28,2.28,0,0,1,393.75,262.18Z"/>
        <path class="cls-8" d="M404.61,260.78c-1.62,0-3.24,0-4.87,0s-2-.91-1.32-2.22l.06-.1c2-3.62,2-3.62,6-4.61,2.41-.59,4.83-1.18,7.24-1.75,1.39-.34,2,.12,2.07,1.55.13,2.4-.31,4.63-2.24,6.24a4.11,4.11,0,0,1-2.21.86C407.78,260.87,406.19,260.78,404.61,260.78Z"/>
        <path class="cls-9" d="M355.82,260.72a4.1,4.1,0,0,1-2.22-.85c-1.92-1.62-2.36-3.85-2.23-6.24.08-1.44.67-1.89,2.06-1.56,2.42.58,4.84,1.16,7.25,1.76,4,1,4,1,6,4.61a.47.47,0,0,1,.05.1c.71,1.31.19,2.2-1.32,2.22s-3.24,0-4.86,0S357.39,260.85,355.82,260.72Z"/>
        <circle class="cls-10" cx="409.37" cy="256.78" r="1.98"/>
        <circle class="cls-10" cx="402.86" cy="257.84" r="1.4"/>
        <circle class="cls-10" cx="356.1" cy="256.75" r="1.98"/>
        <circle class="cls-10" cx="362.62" cy="257.81" r="1.4"/>
      </g>
    </g>
    <rect class="cls-11" x="82.96" y="148.46" width="170.16" height="9.1"/>
    <rect class="cls-11" x="82.96" y="125.1" width="170.16" height="9.1"/>
    <rect class="cls-11" x="82.96" y="172.59" width="170.16" height="9.1"/>
    <rect class="cls-11" x="82.96" y="196.72" width="77.42" height="9.1"/>
  </g>
  <g>
    <polygon class="cls-7" points="73.98 0 14.55 0 0.03 0 0 0 0 14.52 0.03 14.52 0.03 73.98 14.55 73.98 14.55 14.52 73.98 14.52 73.98 0"/>
    <polygon class="cls-7" points="494.99 73.98 494.99 14.55 494.99 0.03 494.99 0 480.48 0 480.48 0.03 421.01 0.03 421.01 14.55 480.48 14.55 480.48 73.98 494.99 73.98"/>
    <polygon class="cls-7" points="421.01 358.92 480.44 358.92 494.96 358.92 494.99 358.92 494.99 344.41 494.96 344.41 494.96 284.94 480.44 284.94 480.44 344.41 421.01 344.41 421.01 358.92"/>
    <polygon class="cls-7" points="0 284.94 0 344.38 0 358.89 0 358.92 14.52 358.92 14.52 358.89 73.98 358.89 73.98 344.38 14.52 344.38 14.52 284.94 0 284.94"/>
  </g>
  <path class="cls-7" d="M270.37,337.88h-8.73a4.42,4.42,0,0,1-3.52-1.74l-2.74-3.57a6.76,6.76,0,0,0-5.35-2.63h-6.29a6.75,6.75,0,0,0-5.35,2.63l-2.74,3.57a4.43,4.43,0,0,1-3.53,1.74h-9.78a4.43,4.43,0,0,0-4.43,4.43v35.48a4.42,4.42,0,0,0,4.42,4.42h48a4.43,4.43,0,0,0,4.43-4.43V342.31A4.43,4.43,0,0,0,270.37,337.88Zm-24.29,36.66a15.62,15.62,0,1,1,15.62-15.62A15.61,15.61,0,0,1,246.08,374.54Z"/>
  <circle class="cls-12" cx="246.08" cy="358.92" r="15.62"/>
  <circle class="cls-13" cx="246.08" cy="358.92" r="10.99"/>
</svg>
