<svg id="Layer_1" data-name="Layer 1" xmlns="http://www.w3.org/2000/svg" xmlns:xlink="http://www.w3.org/1999/xlink" viewBox="0 0 495.04 382.21">
  <defs>
    <style>
      .cls-1 {
        fill: #010101;
      }

      .cls-2 {
        fill: #f0efef;
      }

      .cls-3 {
        fill: #bababa;
        opacity: 0.31;
      }

      .cls-14, .cls-4 {
        fill: #fff;
      }

      .cls-5 {
        fill: #e3ddd6;
      }

      .cls-6 {
        fill: #b0aaa6;
      }

      .cls-7 {
        fill: #e1dcd4;
      }

      .cls-8 {
        fill: #333;
      }

      .cls-9 {
        fill: currentColor;
      }

      .cls-10 {
        fill: #f2f2f2;
      }

      .cls-11 {
        fill: #111;
      }

      .cls-12, .cls-13, .cls-14 {
        opacity: 0.67;
      }

      .cls-12 {
        fill: url(#linear-gradient);
      }

      .cls-13 {
        fill: #dcdbdb;
      }

      .cls-15 {
        fill: #b7b8ba;
      }

      .cls-16 {
        fill: #2b2829;
      }

      .cls-17 {
        fill: #ececec;
      }

      .cls-18 {
        fill: #231f20;
      }
    </style>
    <linearGradient id="linear-gradient" x1="425.93" y1="252.75" x2="335.84" y2="270.41" gradientUnits="userSpaceOnUse">
      <stop offset="0.01" stop-color="#e3ddd6"/>
      <stop offset="0.99" stop-color="#bdb4a9"/>
    </linearGradient>
  </defs>
  <g>
    <path class="cls-1" d="M216.22,25.54c-2.52-2.42-3.92-6.39-3.92-10.63S213.7,6.5,216.51,4h2.71v.25a14.76,14.76,0,0,0-4.32,10.67,14.93,14.93,0,0,0,4,10.36v.27Z"/>
    <path class="cls-1" d="M220.89,8.33h8.29V10.5h-5.6v3.44h4.29v2.14h-4.29v5.67h-2.69Z"/>
    <path class="cls-1" d="M236.12,8.33c3.22,0,4.84,1.87,4.84,4.11a3.87,3.87,0,0,1-3.06,3.87l3.21,5.44H238l-3-5.23h-1.27v5.23h-2.69V8.33Zm-.1,2.23h-2.25V14.5H236c1.5,0,2.17-.79,2.17-2S237.52,10.56,236,10.56Z"/>
    <path class="cls-1" d="M249.63,21.89A6.75,6.75,0,0,1,242.74,15a6.88,6.88,0,0,1,13.75,0A6.72,6.72,0,0,1,249.63,21.89Zm0-2.41c2.42,0,4.09-1.75,4.09-4.48s-1.67-4.44-4.09-4.44-4.12,1.71-4.12,4.44S247.18,19.48,249.63,19.48Z"/>
    <path class="cls-1" d="M270,8.31V21.75h-2.69l-6.09-9.21v9.21h-2.69V8.31h2.69l6.09,9.23V8.31Z"/>
    <path class="cls-1" d="M271.9,8.33h9.85V10.5h-3.58V21.75h-2.69V10.5H271.9Z"/>
    <path class="cls-1" d="M283,25.54v-.27a14.94,14.94,0,0,0,4-10.36,14.77,14.77,0,0,0-4.33-10.67V4h2.71c2.81,2.51,4.21,6.65,4.21,10.92s-1.4,8.21-3.92,10.63Z"/>
  </g>
  <rect class="cls-2" x="46.93" y="48.64" width="400.53" height="265.04" rx="10.87"/>
  <path class="cls-3" d="M447.46,274.36l0,26.22c.27,12.29-8.39,13.12-13.4,13.12l-376.28,0a10.84,10.84,0,0,1-10.87-10.87V274.36Z"/>
  <rect class="cls-4" x="66.66" y="79.3" width="124.09" height="125.95"/>
  <path class="cls-5" d="M118.06,159.27l-2.53,16.65a6.42,6.42,0,0,1-3.42,4.82L90.48,191.55l77.45.62-16-9a11.26,11.26,0,0,1-5.47-7.75l-2.95-15.58Z"/>
  <path class="cls-6" d="M117.4,163.66s2.88,7.19,13.3,7,13.63-7,13.63-7Z"/>
  <path class="cls-5" d="M154.26,133.38s4.6-.2,4.81,3.55-5.14,8.28-5.14,8.28Z"/>
  <path class="cls-5" d="M107.69,133.72s-4.57-.62-5.12,3.09,5,8.1,5,8.1Z"/>
  <path class="cls-7" d="M107.13,135.53v6.62s1.14,12.65,9.62,20.9,19.66,4.76,23,3.11,8.55-3.57,12.53-13.36,1.34-27.16,1.34-27.16-1-15.16-8.11-17.08-22.88-3.86-29.77,1.65S107.13,135.53,107.13,135.53Z"/>
  <polygon class="cls-6" points="130.64 136.14 128.18 150.03 130.82 151.54 130.64 136.14"/>
  <path class="cls-8" d="M122.93,115s3.22,9.4,17.83,10c3.26.28,5.79.42,5.79.42s6.57.65,6.2,5.65c-.35,4.74.46,7.39.9,11.7,3.51-5.45,7.66-8.7,10-21.56a30,30,0,0,0-12-29.92c-8.54-6.25-15.24-7.16-20.9-5s-5.25,1.75-10.39,5c-2.11,1.08-3.39,2-6.72,2.28A18.35,18.35,0,0,0,97.7,105.46c-3.72,9.83,7.53,28.33,9.43,34.64,1.91-6.58-.64-9.85,5.47-16.28C117.38,119.14,121.71,118.12,122.93,115Z"/>
  <path class="cls-9" d="M70.53,205.23l4.76-6.3,34.56-18.35s7.4,6.39,21.68,6,19.84-5.41,19.84-5.41l30.95,17,5.57,7.1Z"/>
  <circle class="cls-8" cx="118.83" cy="137.2" r="2.1"/>
  <circle class="cls-8" cx="140.29" cy="137.2" r="2.1"/>
  <path class="cls-10" d="M127.45,158.3s6.1-.32,9.13-1.76a5.54,5.54,0,0,1-4.57,2.7C128.66,159.49,127.45,158.3,127.45,158.3Z"/>
  <g>
    <rect class="cls-4" x="335.87" y="210.39" width="92.8" height="86.61" rx="11.49"/>
    <g>
      <path class="cls-11" d="M413.82,244.67c-.33-.69-.94-2-1.27-2.74a2,2,0,0,0,1.57-1.86,1.05,1.05,0,0,1,.83-.95,9.74,9.74,0,0,1,4.39.28,2.47,2.47,0,0,1,1.65,2.33,2,2,0,0,1-1.23,1.63C417.82,243.94,415.81,244.26,413.82,244.67Z"/>
      <path class="cls-11" d="M350.73,244.67c.33-.69.94-2,1.27-2.74a2,2,0,0,1-1.57-1.86,1.05,1.05,0,0,0-.84-.95,9.7,9.7,0,0,0-4.38.28,2.46,2.46,0,0,0-1.65,2.33,2,2,0,0,0,1.23,1.63C346.73,243.94,348.74,244.26,350.73,244.67Z"/>
      <path class="cls-9" d="M413.54,244a48.7,48.7,0,0,0,2.3,4.35c2.86,4.31,3.4,9.1,3,14.07a64.68,64.68,0,0,1-1.16,7.59,19.8,19.8,0,0,1-1.54,3.6,6.6,6.6,0,0,1-4.77,1.46c-1.59-.07-3.18,0-4.77.06l-19.36.1-26.95.11c-.6,0-1.2,0-1.8.06-1.71,0-3.42-.08-5.13,0a7.1,7.1,0,0,1-4.43-1.09c-1.68-1.61-2-3.8-2.37-5.92a36.43,36.43,0,0,1-.61-12.53,19.42,19.42,0,0,1,1.62-5c1-2.34,2.3-4.58,3.47-6.85.32-.7.63-1.4.95-2.09,1.6-3.19,3.06-6.46,4.83-9.55,3.59-6.24,3-5.65,9.81-6.16s13.62-.7,20.43-.7c4.8,0,9.6.58,14.4.85a4.59,4.59,0,0,1,4,2.49c2.1,3.78,4.16,7.58,6.23,11.38.31.56.6,1.13.9,1.7Zm-3.82-1.89a2.08,2.08,0,0,0,0-.53q-2.82-6.19-5.66-12.37a1.93,1.93,0,0,0-1.91-1.19c-10.23,0-20.47-.11-30.7-.1-3,0-5.93.24-8.9.31a2.27,2.27,0,0,0-2.27,1.6c-.5,1.23-1.08,2.42-1.62,3.63l-3.83,8.65ZM394.33,273c.93,0,1.31-.3,1.27-1.13,0-1,0-2,0-3,0-.71-.29-1.07-1.14-1.07q-12.13.06-24.28.09c-.87,0-1.24.36-1.22,1.13,0,1,0,1.95,0,2.93s.22,1.22,1.39,1.22C374.32,273.1,390.3,272.94,394.33,273Zm11.39-12.85c1.68,0,3.38.09,5,0a4.54,4.54,0,0,0,2.36-.91c2.05-1.72,2.52-4.1,2.38-6.65-.09-1.52-.72-2-2.2-1.65-2.57.61-5.15,1.23-7.72,1.86-4.26,1.06-4.25,1.06-6.4,4.91l-.06.11c-.75,1.4-.2,2.34,1.41,2.36S404,260.11,405.72,260.11Zm-47,0c1.76,0,3.53,0,5.3,0,1.54,0,2.12-1,1.39-2.29a17.47,17.47,0,0,0-2.23-3.47,2.6,2.6,0,0,0-1-.66c-2.75-.93-7.57-2-11.39-2.92a1.31,1.31,0,0,0-1.74,1.2,8.31,8.31,0,0,0,1.57,6.48,4.71,4.71,0,0,0,4,1.66C356.17,260,357.23,260.11,358.76,260.11Z"/>
      <path class="cls-11" d="M406.57,275.14c1.59,0,3.18-.13,4.77-.06a6.6,6.6,0,0,0,4.77-1.46c0,1.92.09,3.83.07,5.75a2,2,0,0,1-2.2,2.15c-1.76,0-3.51.05-5.27,0a1.93,1.93,0,0,1-2.11-2.09C406.56,278,406.58,276.57,406.57,275.14Z"/>
      <path class="cls-11" d="M348.9,274.3a7.1,7.1,0,0,0,4.43,1.09c1.71-.06,3.42,0,5.13,0,0,1.44,0,2.88,0,4.33a1.9,1.9,0,0,1-2.08,2.1c-1.77,0-3.53.06-5.3,0a1.94,1.94,0,0,1-2.16-2.17C348.88,277.91,348.91,276.11,348.9,274.3Z"/>
      <path class="cls-11" d="M394.32,261.58a92.51,92.51,0,0,1-24.09,0,2.29,2.29,0,0,1-2.06-2.56l.42-2.69a2.3,2.3,0,0,1,2.58-1.88,85.12,85.12,0,0,0,22.21,0,2.29,2.29,0,0,1,2.57,1.88c.15.9.29,1.8.43,2.69A2.28,2.28,0,0,1,394.32,261.58Z"/>
      <path class="cls-12" d="M405.72,260.11c-1.73,0-3.46,0-5.18,0s-2.16-1-1.41-2.36l.06-.11c2.15-3.85,2.14-3.85,6.4-4.91,2.57-.63,5.15-1.25,7.72-1.86,1.48-.36,2.11.13,2.2,1.65.14,2.55-.33,4.93-2.38,6.65a4.54,4.54,0,0,1-2.36.91C409.1,260.2,407.4,260.11,405.72,260.11Z"/>
      <path class="cls-13" d="M353.78,260.05a4.46,4.46,0,0,1-2.36-.91c-2.05-1.72-2.52-4.09-2.37-6.65.08-1.52.71-2,2.19-1.65q3.87.91,7.72,1.87c4.26,1,4.26,1.06,6.4,4.91l.06.1c.75,1.4.2,2.35-1.41,2.37s-3.45,0-5.17,0S355.46,260.19,353.78,260.05Z"/>
      <circle class="cls-14" cx="410.79" cy="255.85" r="2.11"/>
      <circle class="cls-14" cx="403.85" cy="256.98" r="1.49"/>
      <circle class="cls-14" cx="354.08" cy="255.82" r="2.11"/>
      <circle class="cls-14" cx="361.02" cy="256.95" r="1.49"/>
    </g>
  </g>
  <rect class="cls-15" x="221.45" y="148.47" width="170.16" height="9.1"/>
  <rect class="cls-15" x="221.45" y="125.11" width="170.16" height="9.1"/>
  <rect class="cls-15" x="221.45" y="172.6" width="170.16" height="9.1"/>
  <rect class="cls-15" x="221.45" y="196.73" width="77.42" height="9.1"/>
  <g>
    <polygon class="cls-9" points="73.95 0 14.52 0 0 0 -0.03 0 -0.03 14.52 0 14.52 0 73.98 14.52 73.98 14.52 14.52 73.95 14.52 73.95 0"/>
    <polygon class="cls-9" points="494.96 73.98 494.96 14.55 494.96 0.03 494.96 0 480.44 0 480.44 0.03 420.98 0.03 420.98 14.55 480.44 14.55 480.44 73.98 494.96 73.98"/>
    <polygon class="cls-9" points="420.98 358.92 480.41 358.92 494.93 358.92 494.96 358.92 494.96 344.41 494.93 344.41 494.93 284.94 480.41 284.94 480.41 344.41 420.98 344.41 420.98 358.92"/>
    <polygon class="cls-9" points="-0.03 284.94 -0.03 344.38 -0.03 358.89 -0.03 358.92 14.48 358.92 14.48 358.89 73.95 358.89 73.95 344.38 14.48 344.38 14.48 284.94 -0.03 284.94"/>
  </g>
  <path class="cls-9" d="M273.07,337.88h-8.73a4.42,4.42,0,0,1-3.52-1.74l-2.74-3.57a6.76,6.76,0,0,0-5.35-2.63h-6.29a6.75,6.75,0,0,0-5.35,2.63l-2.74,3.57a4.44,4.44,0,0,1-3.53,1.74H225a4.43,4.43,0,0,0-4.43,4.43v35.48a4.42,4.42,0,0,0,4.42,4.42h48a4.43,4.43,0,0,0,4.43-4.43V342.31A4.43,4.43,0,0,0,273.07,337.88Zm-24.29,36.66a15.62,15.62,0,1,1,15.62-15.62A15.61,15.61,0,0,1,248.78,374.54Z"/>
  <circle class="cls-16" cx="248.78" cy="358.92" r="15.62"/>
  <circle class="cls-17" cx="248.78" cy="358.92" r="10.99"/>
  <g>
    <path class="cls-18" d="M221.45,93.44H226c4.23,0,7.24,2.6,7.24,6.28s-3,6.31-7.24,6.31h-4.51Zm4.86,10.13a3.85,3.85,0,1,0,0-7.68h-2.17v7.68Z"/>
    <path class="cls-18" d="M242.87,106,240,101.94h-2V106h-2.7V93.44H241c2.73,0,4.75,1.76,4.75,4.25a4.1,4.1,0,0,1-2.86,3.94l3.09,4.4ZM238,99.47h2.68c1.33,0,2.25-.7,2.25-1.78s-.92-1.78-2.25-1.78H238Z"/>
    <path class="cls-18" d="M247.76,93.44h2.72V106h-2.72Z"/>
    <path class="cls-18" d="M265.27,93.44,260.14,106h-3L252,93.44H255l3.61,8.87,3.61-8.87Z"/>
    <path class="cls-18" d="M266.8,93.44h2.71V106H266.8Z"/>
    <path class="cls-18" d="M272.14,93.44h2.69l6.07,8.14V93.44h2.71V106H280.9l-6.07-8.14V106h-2.69Z"/>
    <path class="cls-18" d="M292,99h5.57v5.19a7.24,7.24,0,0,1-5.1,2.11,6.52,6.52,0,1,1,0-13,7.24,7.24,0,0,1,5.1,2.11l-2,1.76a4.35,4.35,0,0,0-3.14-1.42,4.06,4.06,0,0,0,0,8.12,4.32,4.32,0,0,0,2.46-.8v-1.93H292Z"/>
    <path class="cls-18" d="M313.85,103.59V106h-9V93.44h2.71v10.15Z"/>
    <path class="cls-18" d="M315.64,93.44h2.71V106h-2.71Z"/>
    <path class="cls-18" d="M320.37,99.72A6.7,6.7,0,0,1,332,95.33l-2,1.76a3.91,3.91,0,0,0-2.93-1.42,4.06,4.06,0,0,0,0,8.12,3.9,3.9,0,0,0,2.93-1.41l2,1.76a6.79,6.79,0,0,1-4.89,2.11A6.71,6.71,0,0,1,320.37,99.72Z"/>
    <path class="cls-18" d="M336.34,95.88v2.51h6.32v2.43h-6.32v2.77h7V106h-9.69V93.44h9.69v2.44Z"/>
    <path class="cls-18" d="M345.49,93.44h2.7l6.06,8.14V93.44H357V106h-2.72l-6.06-8.14V106h-2.7Z"/>
    <path class="cls-18" d="M358.75,104.16l1.56-1.85a6.2,6.2,0,0,0,4.14,1.65c1.36,0,2.05-.62,2.05-1.41s-.73-1.17-2.65-1.61c-2.66-.61-4.55-1.36-4.55-3.8s1.91-3.92,4.66-3.92A7.29,7.29,0,0,1,368.89,95l-1.41,1.94a5.84,5.84,0,0,0-3.6-1.39c-1.15,0-1.85.6-1.85,1.36s.75,1.21,2.7,1.65c2.71.6,4.51,1.41,4.51,3.73s-1.82,4-4.9,4A8.08,8.08,0,0,1,358.75,104.16Z"/>
    <path class="cls-18" d="M373.9,95.88v2.51h6.32v2.43H373.9v2.77h7V106h-9.69V93.44h9.69v2.44Z"/>
  </g>
</svg>
