<svg id="Layer_1" data-name="Layer 1" xmlns="http://www.w3.org/2000/svg" xmlns:xlink="http://www.w3.org/1999/xlink" viewBox="0 0 252.55 167.23">
  <defs>
    <style>
      .driving-license-1 {
        fill: #f0efef;
      }

      .driving-license-2 {
        fill: #bababa;
        opacity: 0.31;
      }

      .driving-license-15, .driving-license-3 {
        fill: #fff;
      }

      .driving-license-4 {
        fill: #e3ddd6;
      }

      .driving-license-5 {
        fill: #b0aaa6;
      }

      .driving-license-6 {
        fill: #e1dcd4;
      }

      .driving-license-7 {
        fill: #333;
      }

      .driving-license-8 {
        fill: currentColor;
      }

      .driving-license-9 {
        fill: #f2f2f2;
      }

      .driving-license-10 {
        fill: #b7b8ba;
      }

      .driving-license-11 {
        fill: #231f20;
      }

      .driving-license-12 {
        fill: #111;
      }

      .driving-license-13, .driving-license-14, .driving-license-15 {
        opacity: 0.67;
      }

      .driving-license-13 {
        fill: url(#linear-gradient);
      }

      .driving-license-14 {
        fill: #dcdbdb;
      }
    </style>
    <linearGradient id="linear-gradient" x1="238.58" y1="129.45" x2="182.58" y2="140.42" gradientUnits="userSpaceOnUse">
      <stop offset="0.01" stop-color="#e3ddd6"/>
      <stop offset="0.99" stop-color="#bdb4a9"/>
    </linearGradient>
  </defs>
  <g>
    <rect class="driving-license-1" width="252.54" height="167.12" rx="10.87"/>
    <path class="driving-license-2" d="M252.54,142.32V158c.12,3.62-5.61,9.17-9.57,9.18H9.61C6,167.12,0,162.31,0,157.91V142.32Z"/>
    <g>
      <rect class="driving-license-3" x="12.44" y="19.33" width="78.24" height="79.41"/>
      <path class="driving-license-4" d="M44.85,69.76l-1.59,10.5a4.07,4.07,0,0,1-2.17,3L27.46,90.11l48.83.39L66.24,84.83A7.09,7.09,0,0,1,62.79,80l-1.87-9.83Z"/>
      <path class="driving-license-5" d="M44.43,72.52s1.82,4.54,8.39,4.42,8.59-4.4,8.59-4.4Z"/>
      <path class="driving-license-4" d="M67.67,53.43s2.91-.13,3,2.24-3.24,5.22-3.24,5.22Z"/>
      <path class="driving-license-4" d="M38.31,53.65s-2.88-.4-3.23,2,3.18,5.1,3.18,5.1Z"/>
      <path class="driving-license-6" d="M38,54.79V59s.71,8,6.06,13.18,12.4,3,14.52,2,5.4-2.25,7.9-8.42.85-17.13.85-17.13-.6-9.55-5.12-10.77-14.42-2.43-18.77,1S38,54.79,38,54.79Z"/>
      <polygon class="driving-license-5" points="52.78 55.17 51.23 63.93 52.89 64.88 52.78 55.17"/>
      <path class="driving-license-7" d="M47.92,41.83s2,5.92,11.24,6.27c2.06.17,3.65.26,3.65.26s4.15.41,3.91,3.56c-.22,3,.29,4.67.57,7.38,2.21-3.44,4.83-5.48,6.28-13.59A18.93,18.93,0,0,0,66,26.84c-5.38-3.94-9.61-4.51-13.18-3.13s-3.31,1.1-6.55,3.16A9,9,0,0,1,42,28.31a11.6,11.6,0,0,0-10,7.54c-2.35,6.2,4.75,17.84,6,21.82,1.2-4.15-.41-6.21,3.45-10.27C44.42,44.45,47.15,43.81,47.92,41.83Z"/>
      <path class="driving-license-8" d="M14.88,98.74l3-4L39.67,83.19s4.67,4,13.67,3.78,12.51-3.41,12.51-3.41L85.36,94.27l3.52,4.47Z"/>
      <circle class="driving-license-7" cx="45.34" cy="55.84" r="1.32"/>
      <circle class="driving-license-7" cx="58.87" cy="55.84" r="1.32"/>
      <path class="driving-license-9" d="M50.77,69.14A20.48,20.48,0,0,0,56.53,68a3.51,3.51,0,0,1-2.88,1.7C51.53,69.9,50.77,69.14,50.77,69.14Z"/>
    </g>
    <rect class="driving-license-3" x="182.19" y="101.99" width="58.51" height="54.61" rx="11.49"/>
    <rect class="driving-license-10" x="110.04" y="62.94" width="107.29" height="5.74"/>
    <rect class="driving-license-10" x="110.04" y="48.22" width="107.29" height="5.74"/>
    <rect class="driving-license-10" x="110.04" y="78.16" width="107.29" height="5.74"/>
    <rect class="driving-license-10" x="110.04" y="93.38" width="48.82" height="5.74"/>
    <g>
      <path class="driving-license-11" d="M110.93,22.75h2.95c2.77,0,4.73,1.7,4.73,4.11s-2,4.13-4.73,4.13h-2.95Zm3.17,6.63a2.52,2.52,0,1,0,0-5h-1.41v5Z"/>
      <path class="driving-license-11" d="M124.94,31l-1.88-2.68h-1.31V31H120V22.75h3.7a2.86,2.86,0,0,1,3.11,2.78,2.7,2.7,0,0,1-1.87,2.58L127,31Zm-3.19-4.3h1.75c.88,0,1.47-.45,1.47-1.16s-.59-1.17-1.47-1.17h-1.75Z"/>
      <path class="driving-license-11" d="M128.15,22.75h1.77V31h-1.77Z"/>
      <path class="driving-license-11" d="M139.6,22.75,136.24,31h-2l-3.35-8.24h2l2.36,5.8,2.36-5.8Z"/>
      <path class="driving-license-11" d="M140.6,22.75h1.78V31H140.6Z"/>
      <path class="driving-license-11" d="M144.09,22.75h1.77l4,5.32V22.75h1.77V31h-1.77l-4-5.33V31h-1.77Z"/>
      <path class="driving-license-11" d="M157.09,26.36h3.64v3.39a4.75,4.75,0,0,1-3.33,1.38A4.41,4.41,0,0,1,153,26.86a4.4,4.4,0,0,1,4.42-4.26A4.75,4.75,0,0,1,160.73,24l-1.28,1.15a2.84,2.84,0,0,0-2-.92,2.66,2.66,0,0,0,0,5.31A2.79,2.79,0,0,0,159,29V27.74h-1.92Z"/>
      <path class="driving-license-11" d="M171.39,29.39V31h-5.88V22.75h1.78v6.64Z"/>
      <path class="driving-license-11" d="M172.56,22.75h1.77V31h-1.77Z"/>
      <path class="driving-license-11" d="M175.65,26.86A4.39,4.39,0,0,1,183.23,24L182,25.13a2.56,2.56,0,0,0-1.92-.92,2.66,2.66,0,0,0,0,5.31A2.56,2.56,0,0,0,182,28.6l1.28,1.15a4.39,4.39,0,0,1-7.58-2.89Z"/>
      <path class="driving-license-11" d="M186.1,24.34V26h4.14v1.6H186.1v1.81h4.57V31h-6.34V22.75h6.34v1.59Z"/>
      <path class="driving-license-11" d="M192.09,22.75h1.76l4,5.32V22.75h1.78V31h-1.78l-4-5.33V31h-1.76Z"/>
      <path class="driving-license-11" d="M200.77,29.76l1-1.21a4.06,4.06,0,0,0,2.71,1.08c.89,0,1.34-.41,1.34-.92s-.48-.77-1.74-1.06c-1.74-.39-3-.89-3-2.48s1.25-2.57,3-2.57a4.76,4.76,0,0,1,3.23,1.14L206.48,25a3.8,3.8,0,0,0-2.35-.91c-.76,0-1.21.4-1.21.89s.49.79,1.76,1.08c1.77.39,2.95.92,2.95,2.44s-1.19,2.62-3.2,2.62A5.28,5.28,0,0,1,200.77,29.76Z"/>
      <path class="driving-license-11" d="M210.68,24.34V26h4.14v1.6h-4.14v1.81h4.57V31H208.9V22.75h6.35v1.59Z"/>
    </g>
  </g>
  <g>
    <path class="driving-license-12" d="M231.05,124.43c-.21-.43-.59-1.28-.79-1.71a1.22,1.22,0,0,0,1-1.15.66.66,0,0,1,.51-.6,6.15,6.15,0,0,1,2.73.18,1.54,1.54,0,0,1,1,1.45,1.23,1.23,0,0,1-.77,1C233.54,124,232.28,124.17,231.05,124.43Z"/>
    <path class="driving-license-12" d="M191.84,124.43c.2-.43.58-1.28.79-1.71a1.21,1.21,0,0,1-1-1.15.67.67,0,0,0-.52-.6,6.11,6.11,0,0,0-2.72.18,1.54,1.54,0,0,0-1,1.45,1.23,1.23,0,0,0,.77,1C189.35,124,190.6,124.17,191.84,124.43Z"/>
    <path class="driving-license-8" d="M230.88,124a29,29,0,0,0,1.42,2.71,13.07,13.07,0,0,1,1.85,8.74,39.23,39.23,0,0,1-.72,4.72,12.49,12.49,0,0,1-1,2.24,4.1,4.1,0,0,1-3,.91c-1,0-2,0-3,0l-12,.06-16.75.07c-.37,0-.74,0-1.12,0-1.06,0-2.12-.05-3.19,0a4.38,4.38,0,0,1-2.75-.68c-1-1-1.21-2.36-1.47-3.68a22.68,22.68,0,0,1-.38-7.79,12.34,12.34,0,0,1,1-3.1c.65-1.45,1.44-2.84,2.16-4.26.2-.43.4-.86.59-1.3,1-2,1.91-4,3-5.93,2.22-3.88,1.84-3.51,6.09-3.83s8.46-.43,12.7-.43c3,0,6,.36,8.95.53a2.83,2.83,0,0,1,2.48,1.54c1.31,2.35,2.58,4.72,3.87,7.08l.56,1C230.46,123.15,230.67,123.58,230.88,124Zm-2.38-1.17a1.48,1.48,0,0,0,0-.33c-1.17-2.56-2.35-5.12-3.52-7.69a1.21,1.21,0,0,0-1.19-.74c-6.36,0-12.72-.06-19.08-.06-1.84,0-3.69.15-5.53.2a1.38,1.38,0,0,0-1.41,1c-.31.76-.67,1.5-1,2.26l-2.38,5.37ZM218.94,142c.57,0,.81-.19.79-.71s0-1.25,0-1.87c0-.45-.18-.67-.71-.67l-15.09.05c-.54,0-.77.23-.76.7s0,1.22,0,1.83.14.75.87.75C206.5,142.09,216.43,142,218.94,142Zm7.07-8c1.05,0,2.1.06,3.14,0a2.74,2.74,0,0,0,1.47-.56,4.72,4.72,0,0,0,1.48-4.13c-.06-1-.45-1.25-1.37-1l-4.79,1.16c-2.65.65-2.65.66-4,3l0,.07c-.47.87-.13,1.45.87,1.47Zm-29.18,0h3.29c1,0,1.32-.61.86-1.43a11.05,11.05,0,0,0-1.38-2.16,1.62,1.62,0,0,0-.61-.4c-1.71-.58-4.71-1.25-7.08-1.82a.81.81,0,0,0-1.08.75,5.16,5.16,0,0,0,1,4,3,3,0,0,0,2.48,1C195.22,133.94,195.88,134,196.83,134Z"/>
    <path class="driving-license-12" d="M226.54,143.36c1,0,2-.07,3,0a4.1,4.1,0,0,0,3-.91c0,1.19.06,2.38,0,3.57a1.24,1.24,0,0,1-1.36,1.34c-1.09,0-2.19,0-3.28,0a1.2,1.2,0,0,1-1.31-1.3C226.54,145.15,226.55,144.25,226.54,143.36Z"/>
    <path class="driving-license-12" d="M190.7,142.84a4.38,4.38,0,0,0,2.75.68c1.07,0,2.13,0,3.19,0,0,.9,0,1.79,0,2.69a1.18,1.18,0,0,1-1.29,1.31c-1.1,0-2.2,0-3.29,0a1.2,1.2,0,0,1-1.35-1.34C190.69,145.09,190.71,144,190.7,142.84Z"/>
    <path class="driving-license-12" d="M218,135.05a57.74,57.74,0,0,1-13.14,0,2.26,2.26,0,0,1-2.06-2.54h0a2.33,2.33,0,0,1,2.58-1.9,53.31,53.31,0,0,0,12.11,0,2.33,2.33,0,0,1,2.58,1.9h0A2.26,2.26,0,0,1,218,135.05Z"/>
    <path class="driving-license-13" d="M226,134h-3.22c-1,0-1.34-.6-.87-1.47l0-.07c1.34-2.39,1.34-2.4,4-3l4.79-1.16c.92-.22,1.31.08,1.37,1a4.72,4.72,0,0,1-1.48,4.13,2.74,2.74,0,0,1-1.47.56C228.11,134.08,227.06,134,226,134Z"/>
    <path class="driving-license-14" d="M193.74,134a2.83,2.83,0,0,1-1.47-.57,4.69,4.69,0,0,1-1.48-4.13c.05-.95.45-1.25,1.37-1l4.79,1.16c2.65.66,2.65.66,4,3.05a.25.25,0,0,1,0,.07c.47.87.12,1.46-.87,1.47s-2.15,0-3.22,0S194.78,134.07,193.74,134Z"/>
    <circle class="driving-license-15" cx="229.16" cy="131.37" r="1.31"/>
    <circle class="driving-license-15" cx="224.85" cy="132.08" r="0.93"/>
    <circle class="driving-license-15" cx="193.92" cy="131.35" r="1.31"/>
    <circle class="driving-license-15" cx="198.23" cy="132.06" r="0.93"/>
  </g>
</svg>
