<svg id="Layer_1" data-name="Layer 1" xmlns="http://www.w3.org/2000/svg" viewBox="0 0 252.55 167.23">
  <defs>
    <style>
      .ID-1 {
        fill: #f0efef;
      }

      .ID-2 {
        fill: #bababa;
        opacity: 0.31;
      }

      .ID-3 {
        fill: #010101;
      }

      .ID-4 {
        fill: #fff;
      }

      .ID-5 {
        fill: #e3ddd6;
      }

      .ID-6 {
        fill: #b0aaa6;
      }

      .ID-7 {
        fill: #e1dcd4;
      }

      .ID-8 {
        fill: #333;
      }

      .ID-9 {
        fill: currentColor;
      }

      .ID-10 {
        fill: #f2f2f2;
      }

      .ID-11 {
        fill: #b7b8ba;
      }
    </style>
  </defs>
  <g>
    <rect class="ID-1" width="252.54" height="167.12" rx="10.87"/>
    <path class="ID-2" d="M252.54,142.32V158c.12,3.62-5.61,9.17-9.57,9.18H9.61C6,167.12,0,162.31,0,157.91V142.32Z"/>
    <g>
      <path class="ID-3" d="M110,21.31h1.59v8H110Z"/>
      <path class="ID-3" d="M120.18,25.3a3.84,3.84,0,0,1-4.19,4h-2.78v-8H116A3.84,3.84,0,0,1,120.18,25.3Zm-4.25,2.61a2.38,2.38,0,0,0,2.62-2.61,2.4,2.4,0,0,0-2.62-2.65H114.8v5.26Z"/>
      <path class="ID-3" d="M126,22.6h-3v2h2.68v1.27H123V28h3v1.3h-4.62v-8H126Z"/>
      <path class="ID-3" d="M134.25,21.3v8h-1.6L129,23.8v5.47h-1.6v-8H129l3.61,5.47V21.3Z"/>
      <path class="ID-3" d="M135.4,21.31h5.84V22.6h-2.12v6.67h-1.6V22.6H135.4Z"/>
      <path class="ID-3" d="M142.4,21.31H144v8h-1.6Z"/>
      <path class="ID-3" d="M145.15,21.31H151V22.6h-2.12v6.67h-1.59V22.6h-2.12Z"/>
      <path class="ID-3" d="M151.48,21.31h1.8L155,24.94l1.7-3.63h1.78l-2.69,5.19v2.77h-1.6V26.5Z"/>
      <path class="ID-3" d="M165.75,21.2a3.75,3.75,0,0,1,3.74,2.58h-1.83a2,2,0,0,0-1.92-1.14,2.38,2.38,0,0,0-2.38,2.63,2.39,2.39,0,0,0,2.38,2.64,2,2,0,0,0,1.92-1.15h1.83a3.73,3.73,0,0,1-3.74,2.57,3.92,3.92,0,0,1-4-4.06A3.93,3.93,0,0,1,165.75,21.2Z"/>
      <path class="ID-3" d="M175.74,27.75h-3.17l-.52,1.52h-1.68l2.86-8h1.86l2.86,8h-1.69Zm-1.59-4.61L173,26.47h2.31Z"/>
      <path class="ID-3" d="M182,21.31c1.91,0,2.87,1.1,2.87,2.44A2.29,2.29,0,0,1,183.07,26l1.9,3.23h-1.84l-1.76-3.11h-.75v3.11H179v-8ZM182,22.63h-1.33V25H182c.89,0,1.29-.47,1.29-1.19S182.84,22.63,182,22.63Z"/>
      <path class="ID-3" d="M193.31,25.3c0,2.4-1.66,4-4.2,4h-2.78v-8h2.78A3.85,3.85,0,0,1,193.31,25.3Zm-4.26,2.61a2.39,2.39,0,0,0,2.63-2.61,2.41,2.41,0,0,0-2.63-2.65h-1.13v5.26Z"/>
    </g>
    <g>
      <rect class="ID-4" x="12.44" y="19.33" width="78.24" height="79.41"/>
      <path class="ID-5" d="M44.85,69.76l-1.59,10.5a4.07,4.07,0,0,1-2.17,3L27.46,90.11l48.83.39L66.24,84.83A7.09,7.09,0,0,1,62.79,80l-1.87-9.83Z"/>
      <path class="ID-6" d="M44.43,72.52s1.82,4.54,8.39,4.42,8.59-4.4,8.59-4.4Z"/>
      <path class="ID-5" d="M67.67,53.43s2.91-.13,3,2.24-3.24,5.22-3.24,5.22Z"/>
      <path class="ID-5" d="M38.31,53.65s-2.88-.4-3.23,2,3.18,5.1,3.18,5.1Z"/>
      <path class="ID-7" d="M38,54.79V59s.71,8,6.06,13.18,12.4,3,14.52,2,5.4-2.25,7.9-8.42.85-17.13.85-17.13-.6-9.55-5.12-10.77-14.42-2.43-18.77,1S38,54.79,38,54.79Z"/>
      <polygon class="ID-6" points="52.78 55.17 51.23 63.93 52.89 64.88 52.78 55.17"/>
      <path class="ID-8" d="M47.92,41.83s2,5.92,11.24,6.27c2.06.17,3.65.26,3.65.26s4.15.41,3.91,3.56c-.22,3,.29,4.67.57,7.38,2.21-3.44,4.83-5.48,6.28-13.59A18.93,18.93,0,0,0,66,26.84c-5.38-3.94-9.61-4.51-13.18-3.13s-3.31,1.1-6.55,3.16A9,9,0,0,1,42,28.31a11.55,11.55,0,0,0-10,7.52C29.66,42,36.76,53.69,38,57.67c1.2-4.15-.41-6.21,3.45-10.27C44.42,44.45,47.15,43.81,47.92,41.83Z"/>
      <path class="ID-9" d="M14.88,98.74l3-4L39.67,83.19s4.67,4,13.67,3.78,12.51-3.41,12.51-3.41L85.36,94.27l3.52,4.47Z"/>
      <circle class="ID-8" cx="45.34" cy="55.84" r="1.32"/>
      <circle class="ID-8" cx="58.87" cy="55.84" r="1.32"/>
      <path class="ID-10" d="M50.77,69.14A20.48,20.48,0,0,0,56.53,68a3.51,3.51,0,0,1-2.88,1.7C51.53,69.9,50.77,69.14,50.77,69.14Z"/>
    </g>
    <g>
      <rect class="ID-4" x="182.19" y="101.99" width="58.51" height="54.61" rx="11.49"/>
      <g>
        <path class="ID-9" d="M190.75,111.43H197v34.36h-6.2Z"/>
        <path class="ID-9" d="M204.6,111.43h12.1c11.35,0,19.35,7.1,19.35,17.15s-8,17.21-19.35,17.21H204.6Zm12.75,28.7c7.25,0,12.35-4.79,12.35-11.55s-5.1-11.5-12.35-11.5h-6.5v23Z"/>
      </g>
    </g>
    <g>
      <g>
        <path class="ID-9" d="M32.67,148a7.71,7.71,0,0,1-7.4-5.56H12.35v7.19A3.69,3.69,0,0,0,16,153.31H49.3A3.69,3.69,0,0,0,53,149.62v-7.19H40.06A7.7,7.7,0,0,1,32.67,148Z"/>
        <path class="ID-9" d="M49.3,127.25H16a3.69,3.69,0,0,0-3.69,3.69v7.2H25.27a7.7,7.7,0,0,1,14.79,0H53v-7.2A3.69,3.69,0,0,0,49.3,127.25Z"/>
      </g>
      <circle class="ID-9" cx="32.67" cy="140.28" r="4.6"/>
    </g>
    <rect class="ID-11" x="110.04" y="62.94" width="107.29" height="5.74"/>
    <rect class="ID-11" x="110.04" y="48.22" width="107.29" height="5.74"/>
    <rect class="ID-11" x="110.04" y="78.16" width="107.29" height="5.74"/>
    <rect class="ID-11" x="110.04" y="93.38" width="48.82" height="5.74"/>
  </g>
</svg>
