<svg id="Layer_1" data-name="Layer 1" xmlns="http://www.w3.org/2000/svg" viewBox="0 0 495.04 382.21">
  <defs>
    <style>
      .ID-capture-back-1 {
        fill: #010101;
      }

      .ID-capture-back-2 {
        fill: #f0efef;
      }

      .ID-capture-back-3 {
        fill: #bababa;
        opacity: 0.31;
      }

      .ID-capture-back-4 {
        fill: #fff;
      }

      .ID-capture-back-5 {
        fill: currentColor;
      }

      .ID-capture-back-6 {
        fill: #b7b8ba;
      }

      .ID-capture-back-7 {
        fill: #2b2829;
      }

      .ID-capture-back-8 {
        fill: #ececec;
      }
    </style>
  </defs>
  <g>
    <path class="ID-capture-back-1" d="M216.22,25.54c-2.52-2.43-3.92-6.39-3.92-10.64S213.7,6.5,216.51,4h2.71v.25a14.8,14.8,0,0,0-4.33,10.67,15,15,0,0,0,4,10.37v.27Z"/>
    <path class="ID-capture-back-1" d="M226.68,21.75h-5.79V8.33h5.54c2.8,0,4.36,1.46,4.36,3.46a3.11,3.11,0,0,1-2.29,3.08,3.26,3.26,0,0,1,2.6,3.25C231.1,20.25,229.46,21.75,226.68,21.75ZM226,10.5h-2.46v3.37H226c1.27,0,2-.58,2-1.68S227.31,10.5,226,10.5Zm.19,5.44h-2.65v3.62h2.71c1.31,0,2.08-.64,2.08-1.77S227.54,15.94,226.23,15.94Z"/>
    <path class="ID-capture-back-1" d="M241.48,19.19h-5.35l-.88,2.56h-2.83l4.83-13.44h3.13l4.83,13.44h-2.85Zm-2.68-7.77L236.86,17h3.89Z"/>
    <path class="ID-capture-back-1" d="M253.16,8.16a6.33,6.33,0,0,1,6.31,4.34h-3.1a3.38,3.38,0,0,0-3.23-1.92c-2.34,0-4,1.71-4,4.44s1.68,4.44,4,4.44a3.36,3.36,0,0,0,3.23-1.94h3.1a6.31,6.31,0,0,1-6.31,4.34,6.61,6.61,0,0,1-6.8-6.84A6.63,6.63,0,0,1,253.16,8.16Z"/>
    <path class="ID-capture-back-1" d="M264.46,15.77v6h-2.69V8.33h2.69v6l4.89-6h3.25L267.06,15l5.69,6.77h-3.4Z"/>
    <path class="ID-capture-back-1" d="M273.82,25.54v-.27a14.9,14.9,0,0,0,4-10.37,14.76,14.76,0,0,0-4.33-10.67V4h2.71c2.81,2.52,4.21,6.66,4.21,10.92s-1.4,8.21-3.92,10.64Z"/>
  </g>
  <g>
    <rect class="ID-capture-back-2" x="46.93" y="48.64" width="400.53" height="265.04" rx="10.87"/>
    <path class="ID-capture-back-3" d="M447.46,238l0,62.59c.27,12.29-8.39,13.12-13.4,13.12l-376.28,0a10.84,10.84,0,0,1-10.87-10.87V238Z"/>
    <g>
      <path class="ID-capture-back-1" d="M82.65,83.79h2.53V95.07H82.65Z"/>
      <path class="ID-capture-back-1" d="M98.74,89.44c0,3.41-2.62,5.63-6.65,5.63H87.68V83.79h4.41C96.12,83.79,98.74,86,98.74,89.44ZM92,93.14c2.66,0,4.16-1.36,4.16-3.7s-1.5-3.75-4.16-3.75H90.21v7.45Z"/>
      <path class="ID-capture-back-1" d="M108,85.61h-4.79v2.83h4.25v1.79h-4.25v3H108v1.85h-7.32V83.77H108Z"/>
      <path class="ID-capture-back-1" d="M121.05,83.77v11.3h-2.53l-5.73-7.75v7.75h-2.54V83.77h2.54l5.73,7.76V83.77Z"/>
      <path class="ID-capture-back-1" d="M122.87,83.79h9.26v1.82h-3.36v9.46h-2.53V85.61h-3.37Z"/>
      <path class="ID-capture-back-1" d="M134,83.79h2.53V95.07H134Z"/>
      <path class="ID-capture-back-1" d="M138.33,83.79h9.26v1.82h-3.37v9.46h-2.53V85.61h-3.36Z"/>
      <path class="ID-capture-back-1" d="M148.38,83.79h2.86L154,88.94l2.69-5.15h2.82l-4.26,7.35v3.93h-2.53V91.14Z"/>
      <path class="ID-capture-back-1" d="M171,83.64c2.81,0,5.09,1.34,5.94,3.65H174a3.24,3.24,0,0,0-3-1.61,3.73,3.73,0,1,0,0,7.46,3.22,3.22,0,0,0,3-1.63H177c-.85,2.33-3.13,3.65-5.94,3.65-3.63,0-6.4-2.37-6.4-5.75S167.38,83.64,171,83.64Z"/>
      <path class="ID-capture-back-1" d="M186.85,92.92h-5L181,95.07h-2.66l4.54-11.3h2.95l4.54,11.3h-2.68Zm-2.51-6.53-1.83,4.72h3.65Z"/>
      <path class="ID-capture-back-1" d="M196.79,83.79c3,0,4.56,1.56,4.56,3.45a3.34,3.34,0,0,1-2.87,3.25l3,4.58h-2.92l-2.79-4.4h-1.19v4.4h-2.54V83.79Zm-.09,1.87h-2.11V89h2.11c1.41,0,2.05-.66,2.05-1.68S198.11,85.66,196.7,85.66Z"/>
      <path class="ID-capture-back-1" d="M214.71,89.44c0,3.41-2.62,5.63-6.65,5.63h-4.42V83.79h4.42C212.09,83.79,214.71,86,214.71,89.44ZM208,93.14c2.65,0,4.15-1.36,4.15-3.7s-1.5-3.75-4.15-3.75h-1.8v7.45Z"/>
    </g>
    <g>
      <rect class="ID-capture-back-4" x="335.87" y="210.39" width="92.8" height="86.61" rx="11.49"/>
      <g>
        <path class="ID-capture-back-5" d="M349.46,225.37h9.83v54.48h-9.83Z"/>
        <path class="ID-capture-back-5" d="M371.42,225.37h19.2c18,0,30.69,11.26,30.69,27.2s-12.69,27.28-30.69,27.28h-19.2Zm20.23,45.52c11.5,0,19.58-7.61,19.58-18.32s-8.08-18.24-19.58-18.24H381.34v36.56Z"/>
      </g>
    </g>
    <rect class="ID-capture-back-6" x="82.65" y="148.47" width="170.16" height="9.1"/>
    <rect class="ID-capture-back-6" x="82.65" y="125.11" width="170.16" height="9.1"/>
    <rect class="ID-capture-back-6" x="82.65" y="172.6" width="170.16" height="9.1"/>
    <rect class="ID-capture-back-6" x="82.65" y="196.73" width="77.42" height="9.1"/>
  </g>
  <g>
    <polygon class="ID-capture-back-5" points="302.63 300.83 291.39 289.59 302.51 278.47 305.34 281.29 297.05 289.59 305.46 298 302.63 300.83"/>
    <polygon class="ID-capture-back-5" points="322.14 300.83 310.9 289.59 322.02 278.47 324.85 281.29 316.56 289.59 324.97 298 322.14 300.83"/>
    <polygon class="ID-capture-back-5" points="284.45 300.83 273.21 289.59 284.33 278.47 287.16 281.29 278.87 289.59 287.28 298 284.45 300.83"/>
    <polygon class="ID-capture-back-5" points="265.1 300.83 253.85 289.59 264.97 278.47 267.8 281.29 259.51 289.59 267.92 298 265.1 300.83"/>
    <polygon class="ID-capture-back-5" points="247.34 300.83 236.09 289.59 247.22 278.47 250.04 281.29 241.75 289.59 250.17 298 247.34 300.83"/>
    <polygon class="ID-capture-back-5" points="80.19 251.33 91.43 262.57 80.31 273.69 77.48 270.86 85.78 262.57 77.36 254.16 80.19 251.33"/>
    <polygon class="ID-capture-back-5" points="60.68 251.33 71.92 262.57 60.8 273.69 57.97 270.86 66.27 262.57 57.85 254.16 60.68 251.33"/>
    <polygon class="ID-capture-back-5" points="98.37 251.33 109.61 262.57 98.49 273.69 95.66 270.86 103.95 262.57 95.54 254.16 98.37 251.33"/>
    <polygon class="ID-capture-back-5" points="117.73 251.33 128.97 262.57 117.85 273.69 115.02 270.86 123.31 262.57 114.9 254.16 117.73 251.33"/>
    <polygon class="ID-capture-back-5" points="135.48 251.33 146.73 262.57 135.61 273.69 132.78 270.86 141.07 262.57 132.66 254.16 135.48 251.33"/>
    <g>
      <path class="ID-capture-back-5" d="M155.47,253.09h4.29l6,14,6-14H176v18.84h-3.78V259.67l-5,12.26h-2.86l-5.07-12.26v12.26h-3.78Z"/>
      <path class="ID-capture-back-5" d="M186.81,253.09c4.54,0,6.81,2.62,6.81,5.78a5.44,5.44,0,0,1-4.29,5.42l4.5,7.64h-4.37l-4.16-7.34h-1.78v7.34h-3.78V253.09Zm-.13,3.13h-3.16v5.53h3.16c2.1,0,3-1.1,3-2.8S188.78,256.22,186.68,256.22Z"/>
      <path class="ID-capture-back-5" d="M209.38,256l-8.47,12.74h8.47v3.19H196.54V269L205,256.27h-8.42v-3.18h12.84Z"/>
    </g>
  </g>
  <g>
    <path class="ID-capture-back-5" d="M271.58,342.31v35.47a4.43,4.43,0,0,1-4.44,4.43h-48a4.42,4.42,0,0,1-4.43-4.42V342.31a4.43,4.43,0,0,1,4.44-4.43h9.78a4.46,4.46,0,0,0,3.53-1.74l2.74-3.57a6.73,6.73,0,0,1,5.34-2.63h6.29a6.73,6.73,0,0,1,5.35,2.63l2.74,3.57a4.44,4.44,0,0,0,3.53,1.74h8.72A4.43,4.43,0,0,1,271.58,342.31Z"/>
    <circle class="ID-capture-back-7" cx="242.86" cy="358.92" r="15.62"/>
    <circle class="ID-capture-back-8" cx="242.86" cy="358.92" r="10.99"/>
  </g>
  <g>
    <polygon class="ID-capture-back-5" points="73.98 0 14.55 0 0.03 0 0 0 0 14.52 0.03 14.52 0.03 73.98 14.55 73.98 14.55 14.52 73.98 14.52 73.98 0"/>
    <polygon class="ID-capture-back-5" points="494.99 73.98 494.99 14.55 494.99 0.03 494.99 0 480.48 0 480.48 0.03 421.01 0.03 421.01 14.55 480.48 14.55 480.48 73.98 494.99 73.98"/>
    <polygon class="ID-capture-back-5" points="421.01 358.92 480.44 358.92 494.96 358.92 494.99 358.92 494.99 344.41 494.96 344.41 494.96 284.94 480.44 284.94 480.44 344.41 421.01 344.41 421.01 358.92"/>
    <polygon class="ID-capture-back-5" points="0 284.94 0 344.38 0 358.89 0 358.92 14.52 358.92 14.52 358.89 73.98 358.89 73.98 344.38 14.52 344.38 14.52 284.94 0 284.94"/>
  </g>
</svg>
