<svg id="Layer_1" data-name="Layer 1" xmlns="http://www.w3.org/2000/svg" viewBox="0 0 495.04 382.21">
  <defs>
    <style>
      .ID-capture-front-1 {
        font-size: 19.22px;
        font-family: Poppins-SemiBold, Poppins;
        font-weight: 600;
      }

      .ID-capture-front-1, .ID-capture-front-5 {
        fill: #010101;
      }

      .ID-capture-front-2 {
        letter-spacing: -0.02em;
      }

      .ID-capture-front-3 {
        fill: #f0efef;
      }

      .ID-capture-front-4 {
        fill: #bababa;
        opacity: 0.31;
      }

      .ID-capture-front-6 {
        fill: #fff;
      }

      .ID-capture-front-7 {
        fill: #e3ddd6;
      }

      .ID-capture-front-8 {
        fill: #b0aaa6;
      }

      .ID-capture-front-9 {
        fill: #e1dcd4;
      }

      .ID-capture-front-10 {
        fill: #333;
      }

      .ID-capture-front-11 {
        fill: currentColor;
      }

      .ID-capture-front-12 {
        fill: #f2f2f2;
      }

      .ID-capture-front-13 {
        fill: #b7b8ba;
      }

      .ID-capture-front-14 {
        fill: #2b2829;
      }

      .ID-capture-front-15 {
        fill: #ececec;
      }
    </style>
  </defs>
  <text class="ID-capture-front-1" transform="translate(210.24 21.75)">(FRONT<tspan class="ID-capture-front-2" x="72.13" y="0">)</tspan></text>
  <rect class="ID-capture-front-3" x="46.93" y="48.64" width="400.53" height="265.04" rx="10.87"/>
  <path class="ID-capture-front-4" d="M447.46,274.36l0,26.22c.27,12.29-8.39,13.12-13.4,13.12l-376.28,0a10.84,10.84,0,0,1-10.87-10.87V274.36Z"/>
  <g>
    <path class="ID-capture-front-5" d="M221.45,82.43H224V95.05h-2.53Z"/>
    <path class="ID-capture-front-5" d="M237.54,88.76c0,3.82-2.62,6.29-6.65,6.29h-4.42V82.43h4.42C234.92,82.43,237.54,84.93,237.54,88.76ZM230.8,92.9a4.17,4.17,0,0,0,0-8.33H229V92.9Z"/>
    <path class="ID-capture-front-5" d="M246.76,84.48H242v3.16h4.25v2H242V93h4.79v2.06h-7.32V82.41h7.32Z"/>
    <path class="ID-capture-front-5" d="M259.85,82.41V95.05h-2.53l-5.73-8.66v8.66h-2.54V82.41h2.54l5.73,8.68V82.41Z"/>
    <path class="ID-capture-front-5" d="M261.67,82.43h9.26v2h-3.36V95.05H265V84.48h-3.37Z"/>
    <path class="ID-capture-front-5" d="M272.77,82.43h2.53V95.05h-2.53Z"/>
    <path class="ID-capture-front-5" d="M277.13,82.43h9.26v2H283V95.05h-2.53V84.48h-3.36Z"/>
    <path class="ID-capture-front-5" d="M287.18,82.43H290l2.71,5.77,2.69-5.77h2.82L294,90.66v4.39h-2.54V90.66Z"/>
    <path class="ID-capture-front-5" d="M309.81,82.27a6,6,0,0,1,5.94,4.09h-2.92a3.16,3.16,0,0,0-3-1.81c-2.21,0-3.78,1.61-3.78,4.17s1.57,4.18,3.78,4.18a3.15,3.15,0,0,0,3-1.82h2.92a5.93,5.93,0,0,1-5.94,4.08,6.45,6.45,0,0,1,0-12.89Z"/>
    <path class="ID-capture-front-5" d="M325.65,92.65h-5l-.83,2.4h-2.66l4.54-12.64h2.95l4.54,12.64h-2.68Zm-2.51-7.31-1.83,5.28H325Z"/>
    <path class="ID-capture-front-5" d="M335.59,82.43c3,0,4.56,1.76,4.56,3.87a3.65,3.65,0,0,1-2.88,3.64l3,5.11h-2.93l-2.78-4.91h-1.19v4.91h-2.54V82.43Zm-.09,2.1h-2.11v3.71h2.11c1.41,0,2.05-.74,2.05-1.88S336.91,84.53,335.5,84.53Z"/>
    <path class="ID-capture-front-5" d="M353.51,88.76c0,3.82-2.62,6.29-6.66,6.29h-4.41V82.43h4.41C350.89,82.43,353.51,84.93,353.51,88.76Zm-6.75,4.14a4.17,4.17,0,0,0,0-8.33H345V92.9Z"/>
  </g>
  <rect class="ID-capture-front-6" x="66.66" y="79.3" width="124.09" height="125.95"/>
  <path class="ID-capture-front-7" d="M118.06,159.27l-2.53,16.65a6.42,6.42,0,0,1-3.42,4.82L90.48,191.55l77.45.62-16-9a11.26,11.26,0,0,1-5.47-7.75l-2.95-15.58Z"/>
  <path class="ID-capture-front-8" d="M117.4,163.66s2.88,7.19,13.3,7,13.63-7,13.63-7Z"/>
  <path class="ID-capture-front-7" d="M154.26,133.38s4.6-.2,4.81,3.55-5.14,8.28-5.14,8.28Z"/>
  <path class="ID-capture-front-7" d="M107.69,133.72s-4.57-.62-5.12,3.09,5,8.1,5,8.1Z"/>
  <path class="ID-capture-front-9" d="M107.13,135.53v6.62s1.14,12.65,9.62,20.9,19.66,4.76,23,3.11,8.55-3.57,12.53-13.36,1.34-27.16,1.34-27.16-1-15.16-8.11-17.08-22.88-3.86-29.77,1.65S107.13,135.53,107.13,135.53Z"/>
  <polygon class="ID-capture-front-8" points="130.64 136.14 128.18 150.03 130.82 151.54 130.64 136.14"/>
  <path class="ID-capture-front-10" d="M122.93,115s3.22,9.4,17.83,10c3.26.28,5.79.42,5.79.42s6.57.65,6.2,5.65c-.35,4.74.46,7.39.9,11.7,3.51-5.45,7.66-8.7,10-21.56a30,30,0,0,0-12-29.92c-8.54-6.25-15.24-7.16-20.9-5s-5.25,1.75-10.39,5c-2.11,1.08-3.39,2-6.72,2.28A18.35,18.35,0,0,0,97.7,105.46c-3.72,9.83,7.53,28.33,9.43,34.64,1.91-6.58-.64-9.85,5.47-16.28C117.38,119.14,121.71,118.12,122.93,115Z"/>
  <path class="ID-capture-front-11" d="M70.53,205.23l4.76-6.3,34.56-18.35s7.4,6.39,21.68,6,19.84-5.41,19.84-5.41l30.95,17,5.57,7.1Z"/>
  <circle class="ID-capture-front-10" cx="118.83" cy="137.2" r="2.1"/>
  <circle class="ID-capture-front-10" cx="140.29" cy="137.2" r="2.1"/>
  <path class="ID-capture-front-12" d="M127.45,158.3s6.1-.32,9.13-1.76a5.54,5.54,0,0,1-4.57,2.7C128.66,159.49,127.45,158.3,127.45,158.3Z"/>
  <g>
    <rect class="ID-capture-front-6" x="335.87" y="210.39" width="92.8" height="86.61" rx="11.49"/>
    <g>
      <path class="ID-capture-front-11" d="M349.46,225.37h9.83v54.48h-9.83Z"/>
      <path class="ID-capture-front-11" d="M371.42,225.37h19.2c18,0,30.69,11.26,30.69,27.2s-12.69,27.28-30.69,27.28h-19.2Zm20.23,45.52c11.5,0,19.58-7.61,19.58-18.32s-8.08-18.24-19.58-18.24H381.34v36.56Z"/>
    </g>
  </g>
  <g>
    <g>
      <path class="ID-capture-front-11" d="M98.74,283.34A12.21,12.21,0,0,1,87,274.53H66.52v11.41a5.85,5.85,0,0,0,5.85,5.85h52.74a5.85,5.85,0,0,0,5.85-5.85V274.53H110.47A12.21,12.21,0,0,1,98.74,283.34Z"/>
      <path class="ID-capture-front-11" d="M125.11,250.46H72.37a5.85,5.85,0,0,0-5.85,5.85v11.41H87a12.21,12.21,0,0,1,23.46,0H131V256.31A5.85,5.85,0,0,0,125.11,250.46Z"/>
    </g>
    <circle class="ID-capture-front-11" cx="98.74" cy="271.13" r="7.29"/>
  </g>
  <rect class="ID-capture-front-13" x="221.45" y="148.47" width="170.16" height="9.1"/>
  <rect class="ID-capture-front-13" x="221.45" y="125.11" width="170.16" height="9.1"/>
  <rect class="ID-capture-front-13" x="221.45" y="172.6" width="170.16" height="9.1"/>
  <rect class="ID-capture-front-13" x="221.45" y="196.73" width="77.42" height="9.1"/>
  <g>
    <path class="ID-capture-front-11" d="M271.55,342.31v35.47a4.43,4.43,0,0,1-4.44,4.43h-48a4.42,4.42,0,0,1-4.43-4.42V342.31a4.43,4.43,0,0,1,4.44-4.43h9.78a4.42,4.42,0,0,0,3.52-1.74l2.74-3.57a6.76,6.76,0,0,1,5.35-2.63h6.29a6.75,6.75,0,0,1,5.35,2.63l2.74,3.57a4.44,4.44,0,0,0,3.53,1.74h8.72A4.43,4.43,0,0,1,271.55,342.31Z"/>
    <circle class="ID-capture-front-14" cx="242.83" cy="358.92" r="15.62"/>
    <circle class="ID-capture-front-15" cx="242.83" cy="358.92" r="10.99"/>
  </g>
  <g>
    <polygon class="ID-capture-front-11" points="73.95 0 14.52 0 0 0 -0.03 0 -0.03 14.52 0 14.52 0 73.98 14.52 73.98 14.52 14.52 73.95 14.52 73.95 0"/>
    <polygon class="ID-capture-front-11" points="494.96 73.98 494.96 14.55 494.96 0.03 494.96 0 480.44 0 480.44 0.03 420.98 0.03 420.98 14.55 480.44 14.55 480.44 73.98 494.96 73.98"/>
    <polygon class="ID-capture-front-11" points="420.98 358.92 480.41 358.92 494.93 358.92 494.96 358.92 494.96 344.41 494.93 344.41 494.93 284.94 480.41 284.94 480.41 344.41 420.98 344.41 420.98 358.92"/>
    <polygon class="ID-capture-front-11" points="-0.03 284.94 -0.03 344.38 -0.03 358.89 -0.03 358.92 14.48 358.92 14.48 358.89 73.95 358.89 73.95 344.38 14.48 344.38 14.48 284.94 -0.03 284.94"/>
  </g>
</svg>
