<svg id="Layer_1" data-name="Layer 1" xmlns="http://www.w3.org/2000/svg" viewBox="0 0 352 352">
  <defs>
    <style>
      .choose-document-1 {
        fill: #eaeaea;
      }

      .choose-document-2 {
        fill: currentColor;
      }

      .choose-document-3 {
        fill: #333;
      }

      .choose-document-4 {
        fill: none;
        stroke: #fff;
        stroke-miterlimit: 10;
        stroke-width: 5px;
      }

      .choose-document-5 {
        fill: #cfcfcf;
      }

      .choose-document-6 {
        fill: #fff;
      }

      .choose-document-7 {
        fill: #f2f2f3;
      }

      .choose-document-8 {
        fill: #e1dcd4;
      }

      .choose-document-9 {
        fill: #b0aaa6;
      }

      .choose-document-10 {
        fill: #f2f2f2;
      }
    </style>
  </defs>
  <circle class="choose-document-1" cx="176" cy="176" r="176"/>
  <path class="choose-document-2" d="M86.09,57.53l88.95-34a6.25,6.25,0,0,1,8.35,4.62l26.79,135.51-89.32,69.71Z"/>
  <g>
    <path class="choose-document-3" d="M247.65,208.29,119.83,235.73,86.09,57.53,212.88,32.46a7.16,7.16,0,0,1,8.4,5.63l32,161.8A7.16,7.16,0,0,1,247.65,208.29Z"/>
    <line class="choose-document-4" x1="121.1" y1="75.08" x2="194.2" y2="60.62"/>
    <rect class="choose-document-4" x="173.67" y="186.95" width="21.35" height="13.23" transform="translate(-34.05 39.44) rotate(-11.19)"/>
    <g>
      <circle class="choose-document-4" cx="169.75" cy="119.75" r="37.4"/>
      <path class="choose-document-4" d="M184.48,154.14a52,52,0,0,0-14.2-71.8"/>
      <path class="choose-document-4" d="M154.92,85.37a52,52,0,0,0,14.2,71.8"/>
      <line class="choose-document-4" x1="162.5" y1="83.05" x2="177.01" y2="156.44"/>
      <path class="choose-document-4" d="M146,148.65a52,52,0,0,1,56.63-11.15"/>
      <path class="choose-document-4" d="M136.69,102.27A52,52,0,0,0,193.63,91"/>
      <line class="choose-document-4" x1="133" y1="126.96" x2="206.38" y2="112.45"/>
    </g>
  </g>
  <g>
    <g>
      <rect class="choose-document-5" x="68.39" y="167.59" width="204.76" height="135.48" rx="5" transform="translate(53.46 -30.72) rotate(12.17)"/>
      <path class="choose-document-6" d="M249.61,317,63.12,276.76A6.39,6.39,0,0,1,58.35,271L84.21,151.07c1.33-3.34,4.15-5.16,7-4.54L277.7,186.75a5.3,5.3,0,0,1,4.06,6.3L255.9,312.93A5.29,5.29,0,0,1,249.61,317Z"/>
      <g>
        <line class="choose-document-5" x1="183.63" y1="182.91" x2="253.97" y2="198.08"/>
        <rect class="choose-document-5" x="216.68" y="154.52" width="4.23" height="71.96" transform="translate(-13.55 364.21) rotate(-77.83)"/>
      </g>
      <g>
        <line class="choose-document-5" x1="180.28" y1="198.43" x2="259.93" y2="215.61"/>
        <rect class="choose-document-5" x="217.99" y="166.28" width="4.23" height="81.48" transform="translate(-28.67 378.52) rotate(-77.83)"/>
      </g>
      <g>
        <line class="choose-document-5" x1="167.34" y1="258.42" x2="246.99" y2="275.6"/>
        <rect class="choose-document-5" x="205.05" y="226.27" width="4.23" height="81.48" transform="translate(-97.52 413.22) rotate(-77.83)"/>
      </g>
      <g>
        <line class="choose-document-5" x1="163.55" y1="276" x2="243.2" y2="293.19"/>
        <rect class="choose-document-5" x="201.26" y="243.86" width="4.23" height="81.48" transform="translate(-117.71 423.39) rotate(-77.83)"/>
      </g>
      <g>
        <line class="choose-document-5" x1="176.49" y1="216.01" x2="235.45" y2="228.73"/>
        <rect class="choose-document-5" x="203.86" y="192.21" width="4.23" height="60.32" transform="translate(-54.83 376.82) rotate(-77.83)"/>
      </g>
    </g>
    <g>
      <rect class="choose-document-7" x="85.51" y="164.98" width="75.05" height="76.17" transform="translate(43.15 -20.52) rotate(11.55)"/>
      <path class="choose-document-8" d="M94.46,227.64l14.12-3.79s1.94-.59,3.14-3.86l3-8.13,15,3.43-.11,10.3a6.17,6.17,0,0,0,2.28,4.54l8.36,7.26Z"/>
      <path class="choose-document-9" d="M113.75,214.32s.87,5.05,7,6.2,8.85-2.28,8.85-2.28Z"/>
      <path class="choose-document-8" d="M111,195.18l-.86,4.22s-.92,8.2,3.4,14.57,11.91,5.59,14.27,5,5-2.17,8.8-7.89,4.14-16.84,4.14-16.84-.54-10.4-4.86-12.56-11-4.09-16.09-1.48S111,195.18,111,195.18Z"/>
      <path class="choose-document-8" d="M110.44,196.75s-2.75-.45-3.14,1.78,2.9,5,2.9,5Z"/>
      <polygon class="choose-document-9" points="124.93 200.11 121.8 208.02 123.18 209.23 124.93 200.11"/>
      <path class="choose-document-8" d="M139.66,201.39s2.75.44,2.42,2.68-4.05,4.29-4.05,4.29Z"/>
      <path class="choose-document-3" d="M122.74,185.61s.8,6.21,9.75,8.4c2,.58,3.52,1,3.52,1a5.68,5.68,0,0,1,3.12,4.28c.38,2.73-.65,4.62-.92,7.33,2.85-2.92,2.8-2.58,7.4-11.58,3.75-7.33,2.82-12.1-2.21-16.49-4.84-4.23-8.84-6.39-12.66-6.35a16,16,0,0,0-7.28,1.26c-1.44.4-2.6,1.15-4.69.88s-8,1.31-11.49,6.91,2.67,14.77,3,18.9c1.07-4.38.33-7.16,4.92-10.36C118.78,187.48,121.58,187.4,122.74,185.61Z"/>
      <circle class="choose-document-3" cx="119.06" cy="199.13" r="1.27"/>
      <circle class="choose-document-3" cx="130.51" cy="201.46" r="1.27"/>
      <path class="choose-document-10" d="M119.55,212.29s.43,1.65,3,1.71,2.95-1.38,2.95-1.38Z"/>
      <path class="choose-document-2" d="M81.23,233.39l4.3-4.12,22-6.17s1.35,4,11.3,6,12.8-1.1,12.8-1.1l16.08,12.61,2.58,6.86Z"/>
    </g>
  </g>
</svg>
