<svg id="Layer_1" data-name="Layer 1" xmlns="http://www.w3.org/2000/svg" viewBox="0 0 352 352">
  <defs>
    <style>
      .onboarding-selfie-1 {
        fill: #eaeaea;
      }

      .onboarding-selfie-2 {
        fill: currentColor;
      }

      .onboarding-selfie-3 {
        fill: #2b2829;
      }

      .onboarding-selfie-4 {
        fill: #ececec;
      }

      .onboarding-selfie-5 {
        fill: #fff;
      }

      .onboarding-selfie-6 {
        fill: #e1dcd4;
      }

      .onboarding-selfie-7 {
        fill: #b0aaa6;
      }

      .onboarding-selfie-8 {
        fill: #333;
      }

      .onboarding-selfie-9 {
        fill: #f2f2f2;
      }
    </style>
  </defs>
  <circle class="onboarding-selfie-1" cx="176" cy="176" r="176"/>
  <g>
    <path class="onboarding-selfie-2" d="M206.13,284.93v35.46a4.43,4.43,0,0,1-4.43,4.44h-48a4.43,4.43,0,0,1-4.43-4.43V284.93a4.43,4.43,0,0,1,4.44-4.43h9.78a4.47,4.47,0,0,0,3.53-1.74l2.74-3.57a6.75,6.75,0,0,1,5.35-2.63h6.29a6.76,6.76,0,0,1,5.35,2.63l2.74,3.57A4.45,4.45,0,0,0,193,280.5h8.73A4.43,4.43,0,0,1,206.13,284.93Z"/>
    <circle class="onboarding-selfie-3" cx="177.41" cy="301.54" r="15.62"/>
    <circle class="onboarding-selfie-4" cx="177.41" cy="301.54" r="10.99"/>
  </g>
  <rect class="onboarding-selfie-5" x="73.88" y="57.37" width="200.86" height="203.85"/>
  <path class="onboarding-selfie-6" d="M112.57,239.07l35-17.51s4.76-2.58,6.16-11.82l3.48-22.92,41.26.94,5.24,27.09s1.06,6.52,8.4,10.66l25.82,14.56Z"/>
  <path class="onboarding-selfie-7" d="M156,193.8s5,12.77,21.79,12.47,22-10.72,22-10.72Z"/>
  <path class="onboarding-selfie-6" d="M138.43,145.1v11.53s2,22,16.74,36.37,34.23,8.28,40.09,5.41,11.9-8.36,18.82-25.4,1.83-46.39,1.83-46.39-7-27-19.46-30.34-31-4.83-43,4.76S138.43,145.1,138.43,145.1Z"/>
  <path class="onboarding-selfie-6" d="M137.92,149.51s-7.46.28-7.29,6.35,10.28,11.51,10.28,11.51Z"/>
  <polygon class="onboarding-selfie-7" points="177.72 150.55 173.74 172.98 178 175.4 177.72 150.55"/>
  <path class="onboarding-selfie-6" d="M217,146s7.45-.34,7.79,5.73-8.32,13.41-8.32,13.41Z"/>
  <path class="onboarding-selfie-8" d="M164.19,113.71s5.43,15.85,30.07,16.78c5.5.47,9.77.7,9.77.7a15.16,15.16,0,0,1,10.46,9.54c2.48,7,.77,12.47,1.53,19.73,5.91-9.19,6-8.28,13.19-34.34,5.9-21.24.9-33.24-14.63-42.06-15-8.51-26.61-12-36.61-9.87-8.57,1.83-9.9,2.08-18.42,7.2-3.56,1.84-6.19,4.42-11.81,4.83s-20.16,7.69-26.43,24.27,14.9,37.31,18.1,48c.46-12.07-3-18.95,7.34-29.81C154.81,120.73,162.12,119,164.19,113.71Z"/>
  <circle class="onboarding-selfie-8" cx="158.32" cy="151.09" r="3.4"/>
  <circle class="onboarding-selfie-8" cx="193.06" cy="151.09" r="3.4"/>
  <path class="onboarding-selfie-9" d="M170.13,185.37s2,4.1,8.76,2.88,7-5.21,7-5.21Z"/>
  <path class="onboarding-selfie-2" d="M80.94,261.22,90,248.13l54.31-27.95s5.69,9.75,32.89,9.75,33-9.75,33-9.75l48.92,24.46,10.45,16.58Z"/>
  <polygon class="onboarding-selfie-2" points="279.25 264.7 242.58 264.7 242.58 257.7 272.25 257.7 272.25 231.56 279.25 231.56 279.25 264.7"/>
  <polygon class="onboarding-selfie-2" points="279.25 87.3 272.25 87.3 272.25 61.16 242.58 61.16 242.58 54.16 279.25 54.16 279.25 87.3"/>
  <polygon class="onboarding-selfie-2" points="108.37 264.7 71.7 264.7 71.7 231.56 78.7 231.56 78.7 257.7 108.37 257.7 108.37 264.7"/>
  <polygon class="onboarding-selfie-2" points="78.7 87.3 71.7 87.3 71.7 54.16 108.37 54.16 108.37 61.16 78.7 61.16 78.7 87.3"/>
</svg>
