<svg id="Layer_1" data-name="Layer 1" xmlns="http://www.w3.org/2000/svg" viewBox="0 0 352 352">
  <defs>
    <style>
      .cls-1 {
        fill: #eaeaea;
      }

      .cls-2 {
        fill: #cfcfcf;
      }

      .cls-3 {
        fill: #fff;
      }

      .cls-4 {
        fill: #f2f2f3;
      }

      .cls-5 {
        fill: #e1dcd4;
      }

      .cls-6 {
        fill: #b0aaa6;
      }

      .cls-7 {
        fill: #333;
      }

      .cls-8 {
        fill: #f2f2f2;
      }

      .cls-9 {
        fill: currentColor;
      }

      .cls-10 {
        fill: currentColor;
      }

      .cls-11 {
        fill: #2b2829;
      }

      .cls-12 {
        fill: #ececec;
      }
    </style>
  </defs>
  <circle class="cls-1" cx="176" cy="176" r="176"/>
  <g>
    <g>
      <rect class="cls-2" x="73.62" y="109.4" width="204.76" height="135.48" rx="5" transform="translate(2.45 -2.4) rotate(0.79)"/>
      <path class="cls-3" d="M269.4,241.63,78.65,239a6.4,6.4,0,0,1-5.83-4.75l1.69-122.63c.64-3.54,3-5.88,6-5.84l190.76,2.62a5.3,5.3,0,0,1,5.22,5.37l-1.69,122.63A5.29,5.29,0,0,1,269.4,241.63Z"/>
      <g>
        <line class="cls-2" x1="178.26" y1="123.21" x2="250.21" y2="124.2"/>
        <rect class="cls-2" x="212.12" y="87.73" width="4.23" height="71.96" transform="translate(87.59 336.22) rotate(-89.21)"/>
      </g>
      <g>
        <line class="cls-2" x1="178.04" y1="139.09" x2="259.51" y2="140.21"/>
        <rect class="cls-2" x="216.66" y="98.91" width="4.23" height="81.48" transform="translate(76.14 356.48) rotate(-89.21)"/>
      </g>
      <g>
        <line class="cls-2" x1="177.2" y1="200.45" x2="258.67" y2="201.57"/>
        <rect class="cls-2" x="215.82" y="160.27" width="4.23" height="81.48" transform="translate(13.94 416.16) rotate(-89.21)"/>
      </g>
      <g>
        <line class="cls-2" x1="176.95" y1="218.44" x2="258.42" y2="219.56"/>
        <rect class="cls-2" x="215.57" y="178.26" width="4.23" height="81.48" transform="translate(-4.29 433.66) rotate(-89.21)"/>
      </g>
      <g>
        <line class="cls-2" x1="177.79" y1="157.07" x2="238.1" y2="157.9"/>
        <rect class="cls-2" x="205.83" y="127.33" width="4.23" height="60.32" transform="translate(47.62 363.25) rotate(-89.21)"/>
      </g>
    </g>
    <g>
      <rect class="cls-4" x="85.3" y="116.85" width="75.05" height="76.17" transform="matrix(1, 0, 0, 1, 0.45, -0.35)"/>
      <path class="cls-5" d="M99.67,184.67l13.1-6.51s1.78-1,2.31-4.4l1.33-8.57,15.42.4,1.92,10.13a6.17,6.17,0,0,0,3.13,4l9.63,5.47Z"/>
      <path class="cls-6" d="M116,167.8s1.84,4.78,8.12,4.68,8.23-4,8.23-4Z"/>
      <path class="cls-5" d="M109.44,149.59v4.3s.71,8.23,6.21,13.61,12.78,3.13,15,2.07,4.46-3.12,7.06-9.47.74-17.33.74-17.33-2.58-10.09-7.24-11.36-11.58-1.84-16.07,1.73S109.44,149.59,109.44,149.59Z"/>
      <path class="cls-5" d="M109.24,151.23s-2.79.1-2.73,2.37,3.83,4.31,3.83,4.31Z"/>
      <polygon class="cls-6" points="124.11 151.66 122.6 160.04 124.19 160.95 124.11 151.66"/>
      <path class="cls-5" d="M138.8,150s2.78-.11,2.9,2.15-3.12,5-3.12,5Z"/>
      <path class="cls-7" d="M119.09,137.89s2,5.93,11.22,6.3c2.06.18,3.65.27,3.65.27a5.66,5.66,0,0,1,3.9,3.57c.92,2.61.28,4.67.55,7.38,2.22-3.43,2.24-3.09,5-12.82,2.22-7.93.37-12.42-5.42-15.73-5.59-3.19-9.93-4.51-13.67-3.73a16,16,0,0,0-6.89,2.68c-1.34.68-2.32,1.64-4.42,1.79s-7.54,2.85-9.9,9,5.53,14,6.71,17.93c.19-4.51-1.09-7.08,2.77-11.13C115.58,140.5,118.32,139.86,119.09,137.89Z"/>
      <circle class="cls-7" cx="118.16" cy="151.86" r="1.27"/>
      <circle class="cls-7" cx="129.84" cy="151.88" r="1.27"/>
      <path class="cls-8" d="M121.24,164.67s.74,1.53,3.27,1.08,2.61-1.94,2.61-1.94Z"/>
      <path class="cls-9" d="M87.83,192.91,91.24,188l20.33-10.39s2.11,3.65,12.27,3.68,12.33-3.61,12.33-3.61l18.25,9.2,3.89,6.2Z"/>
    </g>
  </g>
  <g>
    <polygon class="cls-10" points="84.01 78.86 52.51 78.86 44.81 78.86 44.8 78.86 44.8 86.56 44.81 86.56 44.81 118.08 52.51 118.08 52.51 86.56 84.01 86.56 84.01 78.86"/>
    <polygon class="cls-10" points="307.2 118.08 307.2 86.58 307.2 78.88 307.2 78.86 299.51 78.86 299.51 78.88 267.99 78.88 267.99 86.58 299.51 86.58 299.51 118.08 307.2 118.08"/>
    <polygon class="cls-10" points="267.99 269.14 299.49 269.14 307.19 269.14 307.2 269.14 307.2 261.44 307.19 261.44 307.19 229.92 299.49 229.92 299.49 261.44 267.99 261.44 267.99 269.14"/>
    <polygon class="cls-10" points="44.8 229.92 44.8 261.43 44.8 269.12 44.8 269.14 52.49 269.14 52.49 269.12 84.01 269.12 84.01 261.43 52.49 261.43 52.49 229.92 44.8 229.92"/>
  </g>
  <path class="cls-9" d="M202.48,282.33h-8.72a4.47,4.47,0,0,1-3.53-1.74L187.49,277a6.75,6.75,0,0,0-5.35-2.64h-6.29a6.74,6.74,0,0,0-5.34,2.64l-2.75,3.57a4.45,4.45,0,0,1-3.52,1.74h-9.78a4.43,4.43,0,0,0-4.44,4.43v35.47a4.43,4.43,0,0,0,4.43,4.43h48a4.44,4.44,0,0,0,4.44-4.44V286.76A4.43,4.43,0,0,0,202.48,282.33ZM178.2,319a15.62,15.62,0,1,1,15.61-15.62A15.62,15.62,0,0,1,178.2,319Z"/>
  <circle class="cls-11" cx="178.47" cy="303.37" r="15.62"/>
  <circle class="cls-12" cx="178.47" cy="303.37" r="10.99"/>
</svg>
