<svg id="Layer_1" data-name="Layer 1" xmlns="http://www.w3.org/2000/svg" viewBox="0 0 263.22 190.58">
  <defs>
    <style>
      .passport-too-small-1 {
        fill: #333;
      }

      .passport-too-small-2 {
        fill: #f3f3f3;
      }

      .passport-too-small-3 {
        fill: #c9c9c9;
        opacity: 0.31;
      }

      .passport-too-small-4 {
        fill: #b7b8ba;
      }

      .passport-too-small-5 {
        fill: #fff;
      }

      .passport-too-small-6 {
        fill: #e3ddd6;
      }

      .passport-too-small-7 {
        fill: #b0aaa6;
      }

      .passport-too-small-8 {
        fill: #e1dcd4;
      }

      .passport-too-small-9 {
        fill: currentColor;
      }

      .passport-too-small-10 {
        fill: #f2f2f2;
      }

      .passport-too-small-11 {
        fill: #545454;
      }
    </style>
  </defs>
  <path class="passport-too-small-1" d="M261.71,1.51V189.07H1.51V1.51h260.2M263.22,0H0V190.58H263.22V0Z"/>
  <path class="passport-too-small-2" d="M211.69,59.94v76.93l0,22.16a4.08,4.08,0,0,1-4.1,4.08l-147.39-.24a4.94,4.94,0,0,1-4.54-3.62l0-22.38.12-76.93Z"/>
  <path class="passport-too-small-3" d="M211.69,136.87l0,22.16a4.08,4.08,0,0,1-4.1,4.08l-147.39-.24a4.94,4.94,0,0,1-4.54-3.62V136.87Z"/>
  <rect class="passport-too-small-4" x="55.66" y="136.01" width="156.03" height="0.86"/>
  <g>
    <rect class="passport-too-small-4" x="155.4" y="46.53" width="3.27" height="62.95" transform="translate(78.77 234.91) rotate(-89.9)"/>
    <polygon class="passport-too-small-4" points="165.42 119.84 125.64 119.74 125.65 116.47 165.38 116.86 165.42 119.84"/>
    <g>
      <rect class="passport-too-small-4" x="147.2" y="68.59" width="3.27" height="46.6" transform="translate(56.7 240.57) rotate(-89.9)"/>
      <rect class="passport-too-small-4" x="147.2" y="80.97" width="3.27" height="46.6" transform="translate(44.32 252.93) rotate(-89.9)"/>
    </g>
  </g>
  <rect class="passport-too-small-5" x="66.91" y="73" width="49.11" height="49.11"/>
  <g>
    <path class="passport-too-small-6" d="M86.92,104l-1,6.6a2.53,2.53,0,0,1-1.36,1.9L76,116.75l30.67.24-6.31-3.56a4.45,4.45,0,0,1-2.17-3.07L97,104.19Z"/>
    <path class="passport-too-small-7" d="M86.66,105.7s1.14,2.85,5.27,2.77,5.4-2.76,5.4-2.76Z"/>
    <path class="passport-too-small-6" d="M101.26,93.71s1.82-.08,1.91,1.4-2,3.28-2,3.28Z"/>
    <path class="passport-too-small-6" d="M82.81,93.84s-1.81-.25-2,1.23,2,3.2,2,3.2Z"/>
    <path class="passport-too-small-8" d="M82.59,94.56v2.62s.45,5,3.81,8.28,7.79,1.88,9.13,1.23,3.38-1.41,5-5.29.53-10.76.53-10.76-.38-6-3.22-6.77-9.06-1.52-11.79.66S82.59,94.56,82.59,94.56Z"/>
    <polygon class="passport-too-small-7" points="91.91 94.8 90.93 100.3 91.97 100.9 91.91 94.8"/>
    <path class="passport-too-small-9" d="M68.1,122.17l1.88-2.5,13-6.9a13.57,13.57,0,0,0,9.37,3.63,11.88,11.88,0,0,0,8.44-3.4l11.58,6.36,2.21,2.81Z"/>
    <circle class="passport-too-small-1" cx="87.23" cy="95.22" r="0.83"/>
    <circle class="passport-too-small-1" cx="95.73" cy="95.22" r="0.83"/>
    <path class="passport-too-small-10" d="M90.05,103.57a12.65,12.65,0,0,0,3.62-.69A2.2,2.2,0,0,1,91.86,104,2.36,2.36,0,0,1,90.05,103.57Z"/>
    <path class="passport-too-small-1" d="M79.35,88.51c-.43-3.46-.08-4.35,1.11-6.08a4.27,4.27,0,0,1,3.37-2.19A4.35,4.35,0,0,0,86,78.78a10.48,10.48,0,0,1,2.07-1.53c5.79-2.79,7.85-.52,10.81,1s5.76,6.29,5.25,10.47-2.07,6.35-3,7.25c-1.18-.79-1.35-3-1.35-3l-1.2-2.7L96,90.5c-5.67.71-7.89-3-7.89-3a3.45,3.45,0,0,1-2.77,3,2.27,2.27,0,0,0-2,2.06,13,13,0,0,0-.08,3l-.33,2A23,23,0,0,1,79.35,88.51Z"/>
  </g>
  <g>
    <polygon class="passport-too-small-9" points="197.32 158.37 193.2 154.25 197.28 150.18 198.31 151.22 195.27 154.25 198.35 157.34 197.32 158.37"/>
    <polygon class="passport-too-small-9" points="204.46 158.37 200.35 154.25 204.42 150.18 205.45 151.22 202.42 154.25 205.5 157.34 204.46 158.37"/>
    <polygon class="passport-too-small-9" points="190.66 158.37 186.55 154.25 190.62 150.18 191.66 151.22 188.62 154.25 191.7 157.34 190.66 158.37"/>
    <polygon class="passport-too-small-9" points="183.58 158.37 179.46 154.25 183.53 150.18 184.57 151.22 181.53 154.25 184.61 157.34 183.58 158.37"/>
    <polygon class="passport-too-small-9" points="177.07 158.37 172.96 154.25 177.03 150.18 178.07 151.22 175.03 154.25 178.11 157.34 177.07 158.37"/>
    <polygon class="passport-too-small-9" points="69.05 140.25 73.17 144.36 69.1 148.44 68.06 147.4 71.1 144.36 68.02 141.28 69.05 140.25"/>
    <polygon class="passport-too-small-9" points="61.91 140.25 66.03 144.36 61.95 148.44 60.92 147.4 63.96 144.36 60.88 141.28 61.91 140.25"/>
    <polygon class="passport-too-small-9" points="75.71 140.25 79.83 144.36 75.75 148.44 74.72 147.4 77.75 144.36 74.67 141.28 75.71 140.25"/>
    <polygon class="passport-too-small-9" points="82.8 140.25 86.91 144.36 82.84 148.44 81.81 147.4 84.84 144.36 81.76 141.28 82.8 140.25"/>
    <polygon class="passport-too-small-9" points="89.3 140.25 93.41 144.36 89.34 148.44 88.31 147.4 91.34 144.36 88.26 141.28 89.3 140.25"/>
    <g>
      <path class="passport-too-small-9" d="M96.61,140.89h1.58l2.19,5.13,2.19-5.13h1.57v6.9h-1.39V143.3l-1.85,4.49h-1L98,143.3v4.49H96.61Z"/>
      <path class="passport-too-small-9" d="M108.09,140.89c1.66,0,2.49,1,2.49,2.12a2,2,0,0,1-1.57,2l1.65,2.8h-1.6l-1.52-2.69h-.65v2.69H105.5v-6.9Zm0,1.15h-1.15v2H108c.77,0,1.12-.4,1.12-1S108.81,142,108,142Z"/>
      <path class="passport-too-small-9" d="M116.35,142l-3.1,4.66h3.1v1.17h-4.7v-1.07l3.08-4.66h-3.08v-1.17h4.7Z"/>
    </g>
  </g>
  <rect class="passport-too-small-11" x="55.78" y="1.39" width="155.91" height="58.55"/>
</svg>
