<svg id="Layer_1" data-name="Layer 1" xmlns="http://www.w3.org/2000/svg" xmlns:xlink="http://www.w3.org/1999/xlink" viewBox="0 0 263.22 190.58">
  <defs>
    <style>
      .passport-blury-1 {
        fill: #333;
      }

      .passport-blury-2 {
        filter: url(#AI_GaussianBlur_1);
      }

      .passport-blury-3 {
        fill: #f3f3f3;
      }

      .passport-blury-4 {
        fill: #c9c9c9;
        opacity: 0.31;
      }

      .passport-blury-5 {
        fill: #b7b8ba;
      }

      .passport-blury-6 {
        fill: #fff;
      }

      .passport-blury-7 {
        fill: #e3ddd6;
      }

      .passport-blury-8 {
        fill: #b0aaa6;
      }

      .passport-blury-9 {
        fill: #e1dcd4;
      }

      .passport-blury-10 {
        fill: currentColor;
      }

      .passport-blury-11 {
        fill: #f2f2f2;
      }

      .passport-blury-12 {
        fill: #545454;
      }
    </style>
    <filter id="AI_GaussianBlur_1" name="AI_GaussianBlur_1">
      <feGaussianBlur stdDeviation="1"/>
    </filter>
  </defs>
  <path class="passport-blury-1" d="M261.71,1.51V189.07H1.51V1.51h260.2M263.22,0H0V190.58H263.22V0Z"/>
  <g class="passport-blury-2">
    <path class="passport-blury-3" d="M243.45,29.58V139.94l0,31.78a5.85,5.85,0,0,1-5.87,5.85l-211.42-.35A7.08,7.08,0,0,1,19.59,172l.06-32.09.17-110.36Z"/>
    <path class="passport-blury-4" d="M243.45,139.94l0,31.78a5.85,5.85,0,0,1-5.87,5.85l-211.42-.35A7.08,7.08,0,0,1,19.59,172V139.94Z"/>
    <rect class="passport-blury-5" x="19.65" y="138.7" width="223.81" height="1.24"/>
    <g>
      <rect class="passport-blury-5" x="162.72" y="10.34" width="4.69" height="90.29" transform="translate(109.3 220.46) rotate(-89.9)"/>
      <polygon class="passport-blury-5" points="177.09 115.51 120.03 115.35 120.04 110.66 177.03 111.22 177.09 115.51"/>
      <g>
        <rect class="passport-blury-5" x="150.96" y="41.98" width="4.69" height="66.84" transform="translate(77.64 228.58) rotate(-89.9)"/>
        <rect class="passport-blury-5" x="150.96" y="59.75" width="4.69" height="66.84" transform="translate(59.88 246.32) rotate(-89.9)"/>
      </g>
    </g>
    <rect class="passport-blury-6" x="35.79" y="48.32" width="70.44" height="70.44"/>
    <g>
      <path class="passport-blury-7" d="M64.49,92.73l-1.43,9.46a3.65,3.65,0,0,1-2,2.73l-12.29,6.15,44,.35-9.07-5.11a6.44,6.44,0,0,1-3.11-4.4L79,93.06Z"/>
      <path class="passport-blury-8" d="M64.11,95.22s1.64,4.08,7.56,4,7.75-4,7.75-4Z"/>
      <path class="passport-blury-7" d="M85.06,78s2.61-.12,2.73,2-2.92,4.71-2.92,4.71Z"/>
      <path class="passport-blury-7" d="M58.6,78.21S56,77.86,55.69,80s2.86,4.6,2.86,4.6Z"/>
      <path class="passport-blury-9" d="M58.28,79.24V83s.65,7.19,5.47,11.87,11.17,2.71,13.08,1.77,4.86-2,7.12-7.59.76-15.43.76-15.43S84.17,65,80.1,63.91s-13-2.19-16.91.94S58.28,79.24,58.28,79.24Z"/>
      <polygon class="passport-blury-8" points="71.64 79.58 70.24 87.48 71.74 88.33 71.64 79.58"/>
      <path class="passport-blury-10" d="M37.49,118.84l2.7-3.58,18.65-9.9a19.49,19.49,0,0,0,13.43,5.21c8.12-.23,12.11-4.88,12.11-4.88L101,114.81l3.16,4Z"/>
      <circle class="passport-blury-1" cx="64.93" cy="80.18" r="1.19"/>
      <circle class="passport-blury-1" cx="77.12" cy="80.18" r="1.19"/>
      <path class="passport-blury-11" d="M69,92.17a18.42,18.42,0,0,0,5.19-1,3.17,3.17,0,0,1-2.59,1.53A3.43,3.43,0,0,1,69,92.17Z"/>
      <path class="passport-blury-1" d="M53.64,70.56c-.63-5-.13-6.23,1.58-8.71s3.15-2.91,4.84-3.16a6.21,6.21,0,0,0,3.17-2.08,15,15,0,0,1,3-2.2c8.31-4,11.25-.75,15.51,1.41s8.25,9,7.52,15S86.27,80,85,81.24C83.29,80.11,83.06,77,83.06,77l-1.73-3.89-3.82.33c-8.13,1-11.31-4.25-11.31-4.25a5,5,0,0,1-4,4.31c-.82.32-2.47.5-2.8,3a18.13,18.13,0,0,0-.12,4.25l-.48,2.82S54.5,77.4,53.64,70.56Z"/>
    </g>
    <g>
      <polygon class="passport-blury-10" points="222.85 170.77 216.94 164.87 222.78 159.03 224.27 160.51 219.91 164.87 224.33 169.28 222.85 170.77"/>
      <polygon class="passport-blury-10" points="233.09 170.77 227.19 164.87 233.03 159.03 234.51 160.51 230.16 164.87 234.58 169.28 233.09 170.77"/>
      <polygon class="passport-blury-10" points="213.3 170.77 207.4 164.87 213.24 159.03 214.72 160.51 210.37 164.87 214.78 169.28 213.3 170.77"/>
      <polygon class="passport-blury-10" points="203.13 170.77 197.23 164.87 203.07 159.03 204.56 160.51 200.2 164.87 204.62 169.28 203.13 170.77"/>
      <polygon class="passport-blury-10" points="193.81 170.77 187.9 164.87 193.74 159.03 195.23 160.51 190.87 164.87 195.29 169.28 193.81 170.77"/>
      <polygon class="passport-blury-10" points="38.86 144.77 44.77 150.68 38.92 156.52 37.44 155.03 41.8 150.68 37.38 146.26 38.86 144.77"/>
      <polygon class="passport-blury-10" points="28.62 144.77 34.52 150.68 28.68 156.52 27.19 155.03 31.55 150.68 27.13 146.26 28.62 144.77"/>
      <polygon class="passport-blury-10" points="48.41 144.77 54.31 150.68 48.47 156.52 46.99 155.03 51.34 150.68 46.92 146.26 48.41 144.77"/>
      <polygon class="passport-blury-10" points="58.57 144.77 64.48 150.68 58.64 156.52 57.15 155.03 61.51 150.68 57.09 146.26 58.57 144.77"/>
      <polygon class="passport-blury-10" points="67.9 144.77 73.81 150.68 67.96 156.52 66.48 155.03 70.83 150.68 66.42 146.26 67.9 144.77"/>
      <g>
        <path class="passport-blury-10" d="M78.4,145.7h2.25l3.15,7.35,3.14-7.35h2.24v9.89h-2v-6.43l-2.65,6.43h-1.5l-2.67-6.43v6.43h-2Z"/>
        <path class="passport-blury-10" d="M94.86,145.7c2.38,0,3.57,1.37,3.57,3a2.86,2.86,0,0,1-2.25,2.85l2.36,4H96.25l-2.19-3.85h-.93v3.85h-2V145.7Zm-.07,1.64H93.13v2.91h1.66c1.1,0,1.6-.58,1.6-1.48S95.89,147.34,94.79,147.34Z"/>
        <path class="passport-blury-10" d="M106.71,147.23l-4.45,6.69h4.45v1.67H100v-1.53l4.42-6.69H100V145.7h6.75Z"/>
      </g>
    </g>
    <rect class="passport-blury-12" x="19.82" y="1.39" width="223.64" height="28.19"/>
  </g>
</svg>
