<svg id="Layer_1" data-name="Layer 1" xmlns="http://www.w3.org/2000/svg" viewBox="0 0 495.84 642.29">
  <defs>
    <style>
      .passport-capture-1 {
        fill: #f3f3f3;
      }

      .passport-capture-2 {
        fill: #545454;
      }

      .passport-capture-3 {
        fill: #c9c9c9;
        opacity: 0.31;
      }

      .passport-capture-4 {
        fill: #b7b8ba;
      }

      .passport-capture-5 {
        fill: #fff;
      }

      .passport-capture-6 {
        fill: #e3ddd6;
      }

      .passport-capture-7 {
        fill: #b0aaa6;
      }

      .passport-capture-8 {
        fill: #e1dcd4;
      }

      .passport-capture-9 {
        fill: currentColor;
      }

      .passport-capture-10 {
        fill: #333;
      }

      .passport-capture-11 {
        fill: #f2f2f2;
      }

      .passport-capture-12 {
        fill: #2b2829;
      }

      .passport-capture-13 {
        fill: #ececec;
      }
    </style>
  </defs>
  <path class="passport-capture-1" d="M460.76,281.47l.1,208-.1,60.52a11.17,11.17,0,0,1-11.19,11.15L47,560.43c-6.17,0-11.16-5-12.41-9.88l.1-61.12L35,279.29Z"/>
  <path class="passport-capture-2" d="M34.59,280.8l.33-209.47L35,10.81A11.17,11.17,0,0,1,46.21-.34L448.78.33c6.17,0,11.16,5,12.41,9.88l-.1,61.12-.33,210.14Z"/>
  <path class="passport-capture-3" d="M460.86,489.43l-.1,60.52a11.17,11.17,0,0,1-11.19,11.15L47,560.43c-6.17,0-11.16-5-12.41-9.88V489.43Z"/>
  <rect class="passport-capture-4" x="34.69" y="487.08" width="426.17" height="2.35"/>
  <g>
    <rect class="passport-capture-4" x="307.13" y="242.66" width="8.93" height="171.93" transform="translate(-17.56 639.67) rotate(-89.9)"/>
    <polygon class="passport-capture-4" points="334.49 442.91 225.84 442.63 225.85 433.69 334.37 434.75 334.49 442.91"/>
    <g>
      <rect class="passport-capture-4" x="284.73" y="302.91" width="8.93" height="127.28" transform="translate(-77.84 655.13) rotate(-89.9)"/>
      <rect class="passport-capture-4" x="284.73" y="336.74" width="8.93" height="127.28" transform="translate(-111.67 688.91) rotate(-89.9)"/>
    </g>
  </g>
  <rect class="passport-capture-5" x="65.43" y="314.98" width="134.13" height="134.13"/>
  <g>
    <path class="passport-capture-6" d="M120.08,399.54l-2.73,18a7,7,0,0,1-3.71,5.21l-23.39,11.7,83.79.67-17.26-9.73a12.18,12.18,0,0,1-5.92-8.38l-3.19-16.85Z"/>
    <path class="passport-capture-7" d="M119.36,404.28s3.12,7.78,14.4,7.58,14.75-7.55,14.75-7.55Z"/>
    <path class="passport-capture-6" d="M159.24,371.53s5-.22,5.21,3.83-5.56,9-5.56,9Z"/>
    <path class="passport-capture-6" d="M108.86,371.89s-4.94-.67-5.53,3.35,5.44,8.76,5.44,8.76Z"/>
    <path class="passport-capture-8" d="M108.26,373.85V381s1.23,13.68,10.4,22.61,21.28,5.15,24.92,3.36,9.25-3.86,13.56-14.45,1.45-29.38,1.45-29.38-1-16.4-8.78-18.49-24.75-4.17-32.21,1.79S108.26,373.85,108.26,373.85Z"/>
    <polygon class="passport-capture-7" points="133.69 374.51 131.03 389.54 133.89 391.17 133.69 374.51"/>
    <path class="passport-capture-9" d="M68.66,449.26l5.16-6.82,35.5-18.85s10.13,10.35,25.58,9.92,23-9.29,23-9.29l31.65,17.37,6,7.68Z"/>
    <circle class="passport-capture-10" cx="120.92" cy="375.65" r="2.27"/>
    <circle class="passport-capture-10" cx="144.13" cy="375.65" r="2.27"/>
    <path class="passport-capture-11" d="M128.64,398.48s6.6-.35,9.88-1.89a6,6,0,0,1-4.94,2.91C130,399.78,128.64,398.48,128.64,398.48Z"/>
    <path class="passport-capture-10" d="M99.41,357.33c-1.19-9.44-.23-11.87,3-16.59s6-5.53,9.22-6,6-4,6-4,3.4-3.2,5.65-4.19c15.82-7.62,21.42-1.43,29.52,2.69s15.73,17.19,14.34,28.6-5.65,17.34-8.08,19.81c-3.25-2.17-3.69-8.13-3.69-8.13l-3.29-7.39-7.27.62c-15.47,1.93-21.53-8.09-21.53-8.09a9.44,9.44,0,0,1-7.58,8.2c-1.56.61-4.71.95-5.34,5.63a35,35,0,0,0-.23,8.09l-.91,5.37S101.06,370.36,99.41,357.33Z"/>
  </g>
  <g>
    <polygon class="passport-capture-9" points="421.62 548.15 410.37 536.9 421.5 525.78 424.32 528.61 416.03 536.9 424.44 545.32 421.62 548.15"/>
    <polygon class="passport-capture-9" points="441.13 548.15 429.88 536.9 441 525.78 443.83 528.61 435.54 536.9 443.95 545.32 441.13 548.15"/>
    <polygon class="passport-capture-9" points="403.44 548.15 392.19 536.9 403.32 525.78 406.14 528.61 397.85 536.9 406.27 545.32 403.44 548.15"/>
    <polygon class="passport-capture-9" points="384.08 548.15 372.84 536.9 383.96 525.78 386.79 528.61 378.49 536.9 386.91 545.32 384.08 548.15"/>
    <polygon class="passport-capture-9" points="366.32 548.15 355.08 536.9 366.2 525.78 369.03 528.61 360.74 536.9 369.15 545.32 366.32 548.15"/>
    <polygon class="passport-capture-9" points="71.28 498.64 82.52 509.88 71.4 521.01 68.57 518.18 76.86 509.88 68.45 501.47 71.28 498.64"/>
    <polygon class="passport-capture-9" points="51.77 498.64 63.01 509.88 51.89 521.01 49.06 518.18 57.36 509.88 48.94 501.47 51.77 498.64"/>
    <polygon class="passport-capture-9" points="89.46 498.64 100.7 509.88 89.58 521.01 86.75 518.18 95.04 509.88 86.63 501.47 89.46 498.64"/>
    <polygon class="passport-capture-9" points="108.81 498.64 120.06 509.88 108.94 521.01 106.11 518.18 114.4 509.88 105.99 501.47 108.81 498.64"/>
    <polygon class="passport-capture-9" points="126.57 498.64 137.82 509.88 126.69 521.01 123.87 518.18 132.16 509.88 123.75 501.47 126.57 498.64"/>
    <g>
      <path class="passport-capture-9" d="M146.56,500.4h4.29l6,14,6-14h4.26v18.84h-3.78V507l-5,12.25h-2.86L150.34,507v12.25h-3.78Z"/>
      <path class="passport-capture-9" d="M177.9,500.4c4.54,0,6.8,2.62,6.8,5.78a5.44,5.44,0,0,1-4.29,5.43l4.51,7.63h-4.37l-4.16-7.34h-1.78v7.34h-3.78V500.4Zm-.13,3.14h-3.16v5.53h3.16c2.1,0,3-1.11,3-2.81S179.87,503.54,177.77,503.54Z"/>
      <path class="passport-capture-9" d="M200.47,503.32,192,516.06h8.47v3.18H187.62v-2.91l8.43-12.74h-8.43V500.4h12.85Z"/>
    </g>
  </g>
  <path class="passport-capture-9" d="M272,602.4v35.46a4.43,4.43,0,0,1-4.43,4.43h-48a4.42,4.42,0,0,1-4.42-4.42V602.4a4.43,4.43,0,0,1,4.43-4.44h9.78a4.43,4.43,0,0,0,3.53-1.74l2.74-3.56a6.73,6.73,0,0,1,5.35-2.64h6.29a6.74,6.74,0,0,1,5.35,2.64l2.74,3.56a4.42,4.42,0,0,0,3.52,1.74h8.73A4.43,4.43,0,0,1,272,602.4Z"/>
  <circle class="passport-capture-12" cx="243.28" cy="619.01" r="15.62"/>
  <circle class="passport-capture-13" cx="243.28" cy="619.01" r="10.99"/>
  <g>
    <polygon class="passport-capture-9" points="74.2 244.13 14.78 244.13 0.26 244.13 0.23 244.13 0.23 258.64 0.26 258.64 0.26 318.1 14.78 318.1 14.78 258.64 74.2 258.64 74.2 244.13"/>
    <polygon class="passport-capture-9" points="495.22 318.1 495.22 258.68 495.22 244.16 495.22 244.13 480.7 244.13 480.7 244.16 421.24 244.16 421.24 258.68 480.7 258.68 480.7 318.1 495.22 318.1"/>
    <polygon class="passport-capture-9" points="421.24 603.05 480.67 603.05 495.19 603.05 495.22 603.05 495.22 588.53 495.19 588.53 495.19 529.07 480.67 529.07 480.67 588.53 421.24 588.53 421.24 603.05"/>
    <polygon class="passport-capture-9" points="0.23 529.07 0.23 588.5 0.23 603.02 0.23 603.05 14.74 603.05 14.74 603.02 74.2 603.02 74.2 588.5 14.74 588.5 14.74 529.07 0.23 529.07"/>
  </g>
</svg>
