<svg id="Layer_1" data-name="Layer 1" xmlns="http://www.w3.org/2000/svg" viewBox="0 0 263.22 190.58">
  <defs>
    <style>
      .passport-dark-1, .passport-dark-12 {
        fill: #333;
      }

      .passport-dark-2 {
        fill: #f3f3f3;
      }

      .passport-dark-3 {
        fill: #c9c9c9;
        opacity: 0.31;
      }

      .passport-dark-4 {
        fill: #b7b8ba;
      }

      .passport-dark-5 {
        fill: #fff;
      }

      .passport-dark-6 {
        fill: #e3ddd6;
      }

      .passport-dark-7 {
        fill: #b0aaa6;
      }

      .passport-dark-8 {
        fill: #e1dcd4;
      }

      .passport-dark-9 {
        fill: currentColor;
      }

      .passport-dark-10 {
        fill: #f2f2f2;
      }

      .passport-dark-11 {
        fill: #545454;
      }

      .passport-dark-12 {
        opacity: 0.5;
      }
    </style>
  </defs>
  <path class="passport-dark-1" d="M261.71,1.51V189.07H1.51V1.51h260.2M263.22,0H0V190.58H263.22V0Z"/>
  <g>
    <path class="passport-dark-2" d="M261.76,17V145.31l-.06,37a6.82,6.82,0,0,1-6.83,6.81L9,188.67a8.24,8.24,0,0,1-7.58-6l.06-37.33L1.71,17Z"/>
    <path class="passport-dark-3" d="M261.76,145.31l-.06,37a6.82,6.82,0,0,1-6.83,6.81L9,188.67a8.24,8.24,0,0,1-7.58-6V145.31Z"/>
    <rect class="passport-dark-4" x="1.51" y="143.88" width="260.25" height="1.44"/>
    <g>
      <rect class="passport-dark-4" x="167.88" y="-5.39" width="5.45" height="105" transform="translate(123.21 217.64) rotate(-89.9)"/>
      <polygon class="passport-dark-4" points="184.59 116.9 118.24 116.73 118.25 111.27 184.52 111.92 184.59 116.9"/>
      <g>
        <rect class="passport-dark-4" x="154.2" y="31.41" width="5.45" height="77.73" transform="translate(86.4 227.08) rotate(-89.9)"/>
        <rect class="passport-dark-4" x="154.2" y="52.07" width="5.45" height="77.73" transform="translate(65.74 247.71) rotate(-89.9)"/>
      </g>
    </g>
    <rect class="passport-dark-5" x="20.28" y="38.78" width="81.91" height="81.91"/>
    <g>
      <path class="passport-dark-6" d="M53.66,90.42l-1.67,11a4.24,4.24,0,0,1-2.27,3.17l-14.28,7.15,51.16.41-10.53-5.94a7.44,7.44,0,0,1-3.62-5.12l-2-10.29Z"/>
      <path class="passport-dark-7" d="M53.22,93.31s1.9,4.75,8.79,4.63,9-4.61,9-4.61Z"/>
      <path class="passport-dark-6" d="M77.57,73.31s3-.14,3.18,2.34-3.39,5.47-3.39,5.47Z"/>
      <path class="passport-dark-6" d="M46.8,73.53s-3-.41-3.37,2,3.32,5.35,3.32,5.35Z"/>
      <path class="passport-dark-8" d="M46.44,74.73V79.1s.75,8.36,6.35,13.81,13,3.15,15.22,2,5.65-2.35,8.27-8.82.89-17.94.89-17.94-.63-10-5.36-11.29S56.7,54.36,52.14,58,46.44,74.73,46.44,74.73Z"/>
      <polygon class="passport-dark-7" points="61.97 75.13 60.34 84.31 62.09 85.3 61.97 75.13"/>
      <path class="passport-dark-9" d="M22.25,120.78l3.15-4.16L47.09,105.1a22.57,22.57,0,0,0,15.62,6.06c9.43-.26,14.07-5.67,14.07-5.67l19.33,10.6,3.68,4.69Z"/>
      <circle class="passport-dark-1" cx="54.17" cy="75.83" r="1.39"/>
      <circle class="passport-dark-1" cx="68.34" cy="75.83" r="1.39"/>
      <path class="passport-dark-10" d="M58.88,89.77s4-.21,6-1.16a3.64,3.64,0,0,1-3,1.78C59.68,90.56,58.88,89.77,58.88,89.77Z"/>
      <path class="passport-dark-1" d="M41,64.64c-.72-5.76-.14-7.25,1.84-10.13s3.67-3.38,5.63-3.67,3.69-2.42,3.69-2.42a17.27,17.27,0,0,1,3.45-2.56c9.66-4.65,13.09-.87,18,1.64S83.28,58,82.43,65,79,75.56,77.49,77.06c-2-1.32-2.25-5-2.25-5l-2-4.51L68.8,68C59.35,69.15,55.64,63,55.64,63A5.77,5.77,0,0,1,51,68c-1,.37-2.88.57-3.27,3.43a21.82,21.82,0,0,0-.13,5l-.56,3.27S42,72.6,41,64.64Z"/>
    </g>
    <g>
      <polygon class="passport-dark-9" points="237.8 181.17 230.93 174.3 237.72 167.51 239.45 169.24 234.38 174.3 239.52 179.44 237.8 181.17"/>
      <polygon class="passport-dark-9" points="249.71 181.17 242.84 174.3 249.64 167.51 251.36 169.24 246.3 174.3 251.44 179.44 249.71 181.17"/>
      <polygon class="passport-dark-9" points="226.7 181.17 219.83 174.3 226.62 167.51 228.35 169.24 223.28 174.3 228.42 179.44 226.7 181.17"/>
      <polygon class="passport-dark-9" points="214.87 181.17 208.01 174.3 214.8 167.51 216.53 169.24 211.46 174.3 216.6 179.44 214.87 181.17"/>
      <polygon class="passport-dark-9" points="204.03 181.17 197.16 174.3 203.96 167.51 205.68 169.24 200.62 174.3 205.76 179.44 204.03 181.17"/>
      <polygon class="passport-dark-9" points="23.85 150.94 30.72 157.8 23.93 164.59 22.2 162.87 27.26 157.8 22.13 152.66 23.85 150.94"/>
      <polygon class="passport-dark-9" points="11.94 150.94 18.8 157.8 12.01 164.59 10.29 162.87 15.35 157.8 10.21 152.66 11.94 150.94"/>
      <polygon class="passport-dark-9" points="34.95 150.94 41.82 157.8 35.03 164.59 33.3 162.87 38.37 157.8 33.23 152.66 34.95 150.94"/>
      <polygon class="passport-dark-9" points="46.78 150.94 53.64 157.8 46.85 164.59 45.12 162.87 50.19 157.8 45.05 152.66 46.78 150.94"/>
      <polygon class="passport-dark-9" points="57.62 150.94 64.49 157.8 57.69 164.59 55.97 162.87 61.03 157.8 55.89 152.66 57.62 150.94"/>
      <g>
        <path class="passport-dark-9" d="M69.82,152h2.63l3.65,8.56L79.76,152h2.61v11.51H80.06V156L77,163.52H75.23L72.13,156v7.49H69.82Z"/>
        <path class="passport-dark-9" d="M89,152c2.77,0,4.15,1.6,4.15,3.53a3.31,3.31,0,0,1-2.62,3.31l2.75,4.67H90.58L88,159H87v4.49H84.65V152Zm-.09,1.91H87v3.38h1.92c1.29,0,1.87-.67,1.87-1.71S90.17,153.92,88.88,153.92Z"/>
        <path class="passport-dark-9" d="M102.75,153.79l-5.18,7.78h5.18v2H94.9v-1.78l5.15-7.78H94.9v-2h7.85Z"/>
      </g>
    </g>
    <rect class="passport-dark-11" x="1.71" y="1.39" width="260.05" height="15.59"/>
  </g>
  <rect class="passport-dark-12" x="0.13" y="1.1" width="263.22" height="190.58"/>
</svg>
