<svg id="Layer_1" data-name="Layer 1" xmlns="http://www.w3.org/2000/svg" viewBox="0 0 138.38 194.15">
  <defs>
    <style>
      .passport-1 {
        fill: currentColor;
      }

      .passport-2 {
        fill: #333;
      }

      .passport-3, .passport-4 {
        fill: none;
        stroke: #fff;
        stroke-miterlimit: 10;
      }

      .passport-3 {
        stroke-width: 7px;
      }

      .passport-4 {
        stroke-width: 4px;
      }

      .passport-5 {
        fill: #fff;
      }
    </style>
  </defs>
  <g>
    <path class="passport-1" d="M.33,15.7,99.7.07a6.42,6.42,0,0,1,7.48,6.27l-2.28,138L.33,194.15Z"/>
    <path class="passport-2" d="M.33,15.7h125a13,13,0,0,1,13,13V181.13a13,13,0,0,1-13,13H.33a0,0,0,0,1,0,0V15.7A0,0,0,0,1,.33,15.7Z"/>
    <line class="passport-3" x1="33" y1="39.35" x2="110.49" y2="39.35"/>
    <g>
      <circle class="passport-4" cx="70.79" cy="97.15" r="38.89"/>
      <path class="passport-4" d="M78.24,135.33A54.05,54.05,0,0,0,79.5,59.24"/>
      <path class="passport-4" d="M63.23,59A54.05,54.05,0,0,0,62,135.06"/>
      <line class="passport-4" x1="71.43" y1="58.27" x2="70.15" y2="136.04"/>
      <path class="passport-4" d="M40.36,121.35a54.05,54.05,0,0,1,60,1.05"/>
      <path class="passport-4" d="M41,72.16a54.1,54.1,0,0,0,60.37,1"/>
      <line class="passport-4" x1="31.85" y1="96.45" x2="109.62" y2="97.74"/>
    </g>
    <g>
      <g>
        <path class="passport-5" d="M69.63,167.73a5.48,5.48,0,0,1-5.27-4H55.15v5.13a2.63,2.63,0,0,0,2.63,2.63H81.47a2.63,2.63,0,0,0,2.63-2.63v-5.13H74.9A5.49,5.49,0,0,1,69.63,167.73Z"/>
        <path class="passport-5" d="M81.47,153H57.78a2.63,2.63,0,0,0-2.63,2.63v5.13h9.21a5.49,5.49,0,0,1,10.54,0h9.2v-5.13A2.63,2.63,0,0,0,81.47,153Z"/>
      </g>
      <circle class="passport-5" cx="69.63" cy="162.24" r="3.28"/>
    </g>
  </g>
</svg>
